<?xml version="1.0" standalone="no"?>
<!DOCTYPE svg PUBLIC "-//W3C//DTD SVG 1.1//EN" 
  "http://www.w3.org/Graphics/SVG/1.1/DTD/svg11.dtd">
<svg width="1.99999996936315m" height="2.0m" viewBox="0 0 1.99999996936315 2.0"
     xmlns="http://www.w3.org/2000/svg" version="1.1">
<desc>Outline to SVG export</desc>
	<path fill-rule="evenodd" fill="#000000" stroke="#555555" stroke-width="0" opacity="1" d="M 1.5318425106014434e-08,1.9999999880397352 L 2.5224444675195003e-07,2.0 L 0.009999735665971506,2.0 L 0.009999980718434035,1.999999987504147 L 0.01000005254697704,1.9999997528820765 L 0.5099480820027709,0.01000755387056656 L 0.5099483801611455,0.010006579960581413 L 0.5099487758397078,0.010005641431119493 L 0.509949264933692,0.010004748018476763 L 0.5099498423692416,0.010003908990907716 L 0.5099505021560454,0.010003133052476599 L 0.5099512374494816,0.01000242825276152 L 0.5099520406216225,0.010001801903348212 L 0.5099529033403679,0.010001260501979695 L 0.5099538166558816,0.010000809665148764 L 0.5099547710934367,0.010000454069832531 L 0.5099557567517069,0.010000197404973522 L 0.5099567634054825,0.010000042333210613 L 0.5099577806117465,0.009999990463256836 L 1.4900422789926717,0.009999990463256836 L 1.4900432961989571,0.010000042333212817 L 1.4900443028527537,0.010000197404982295 L 1.4900452885110436,0.010000454069852099 L 1.490046242948616,0.010000809665183128 L 1.4900471562641449,0.010001260502032549 L 1.4900480189829022,0.010001801903422855 L 1.4900488221550514,0.01000242825286079 L 1.4900495574484915,0.010003133052602798 L 1.4900502172352952,0.01000390899106256 L 1.49005079467084,0.010004748018661328 L 1.490051283764814,0.010005641431334176 L 1.4900516794433614,0.010006579960825903 L 1.490051977601716,0.010007553870839807 L 1.9899999474530294,1.9999997528820728 L 1.9900000192815666,1.9999999875041468 L 1.9900002643340298,2.0 L 1.9999997477555533,2.0 L 1.9999999846815752,1.9999999880397352 L 1.9999999388217355,1.9999997552869417 L 1.5000000582673116,2.3306924663462302e-07 L 1.5000000525443595,2.1410038033371096e-07 L 1.4999999962421589,1.0612870412702078e-08 L 1.4999998744665883,5.8737798325233614e-09 L 1.4999997547753607,0.0 L 0.5000002452249515,0.0 L 0.5000001255297573,5.873981972802703e-09 L 0.5000000037574083,1.061306306241896e-08 L 0.49999994745358084,2.1410714633097736e-07 L 0.49999994173277007,2.3306891971745915e-07 L 6.117826525954686e-08,1.9999997552869389 L 1.5318425106014434e-08,1.9999999880397352 z" />
</svg>