<?xml version="1.0" standalone="no"?>
<!DOCTYPE svg PUBLIC "-//W3C//DTD SVG 1.1//EN" 
  "http://www.w3.org/Graphics/SVG/1.1/DTD/svg11.dtd">
<svg width="1.999999964762077m" height="0.9999999999999994m" viewBox="0 0 1.999999964762077 0.9999999999999994"
     xmlns="http://www.w3.org/2000/svg" version="1.1">
<desc>Outline to SVG export</desc>
	<path fill-rule="evenodd" fill="#000000" stroke="#555555" stroke-width="0" opacity="1" d="M 1.7618961421730185e-08,0.999999989110883 L 2.422430722563475e-07,1.0 L 0.00999973969327336,1.0 L 0.009999982951888307,0.999999987791931 L 0.010000103505491858,0.9999997761539842 L 0.5099472086082004,0.010005482657638242 L 0.5099477047756494,0.010004611610592599 L 0.5099482856584121,0.010003794615911317 L 0.509948945419168,0.010003039883615578 L 0.5099496774279476,0.010002354998048664 L 0.5099504743287575,0.010001746841660516 L 0.5099513281135009,0.010001221525845656 L 0.5099522302024512,0.010000784329529461 L 0.5099531715304707,0.010000439646119984 L 0.5099541426381063,0.010000190939358356 L 0.5099551337666479,0.010000040708511496 L 0.5099561349561942,0.009999990463256836 L 1.49004392464812,0.009999990463256836 L 1.4900449258377098,0.010000040708515862 L 1.4900459169662934,0.010000190939375733 L 1.4900468880739686,0.010000439646158751 L 1.4900478294020236,0.010000784329597574 L 1.4900487314910047,0.010001221525950463 L 1.4900495852757725,0.010001746841808623 L 1.4900503821765998,0.010002354998245781 L 1.4900511141853887,0.010003039883866393 L 1.4900517739461452,0.010003794616219377 L 1.4900523548288993,0.010004611610960218 L 1.49005285099633,0.01000548265806646 L 1.9899998964945136,0.9999997761539683 L 1.9900000170481127,0.9999999877919299 L 1.9900002603067384,1.0 L 1.9999997577569277,1.0 L 1.9999999823810384,0.999999989110883 L 1.9999998916656037,0.999999783331208 L 1.5000000695088096,1.3901761934058586e-07 L 1.5000000528242212,1.1125025094608821e-07 L 1.4999999951274774,1.216266625182341e-08 L 1.4999999072103736,6.891834113784172e-09 L 1.4999998336022737,2.4788596095879797e-09 L 0.500000245224939,6.078783593059983e-16 L 0.5000000050930026,1.1784355655305196e-08 L 0.4999999471781547,1.11246668127305e-07 L 0.4999999304898388,1.3902032235652002e-07 L 1.0833439616974825e-07,0.9999997833312076 L 1.7618961421730185e-08,0.999999989110883 z" />
</svg>