<?xml version="1.0" standalone="no"?>
<!DOCTYPE svg PUBLIC "-//W3C//DTD SVG 1.1//EN" 
  "http://www.w3.org/Graphics/SVG/1.1/DTD/svg11.dtd">
<svg width="1.9999999758800657m" height="1.999999975623104m" viewBox="0 0 1.9999999758800657 1.999999975623104"
     xmlns="http://www.w3.org/2000/svg" version="1.1">
<desc>Outline to SVG export</desc>
	<path fill-rule="evenodd" fill="#000000" stroke="#555555" stroke-width="0" opacity="1" d="M 1.2059967095385485e-08,1.0000000000000018 L 2.4061671623352445e-08,1.00000024430106 L 0.019214725382847946,1.1950900506817907 L 0.019214759718278053,1.195090282505588 L 0.019214993710099777,1.1950902955063853 L 0.8016837255232941,1.2002841769636148 L 0.8016846986662491,1.2002842309201283 L 0.8016856619346148,1.200284379353858 L 0.8016866061781264,1.2002846208548041 L 0.8016875224272401,1.2002849531289048 L 0.8016884019783358,1.2002853730198266 L 0.8016892364763949,1.200285876538948 L 0.8016900179943658,1.2002864589032476 L 0.8016907391084646,1.200287114580739 L 0.8016913929686947,1.2002878373430206 L 0.8016919733639172,1.2002886203244392 L 0.8016924747808499,1.2002894560873099 L 0.8016928924564409,1.200290336692566 L 0.8016932224231123,1.200291253775175 L 0.8016934615464495,1.2002921986235997 L 0.8016936075549757,1.2002931622625501 L 0.8016936590617288,1.200294135538241 L 0.8049097051070263,1.980785005866808 L 0.8049097175575854,1.980785240250441 L 0.8049099497359711,1.9807852746582981 L 0.9999997556959693,1.9999999759381124 L 1.0000000000000018,1.9999999879400328 L 1.00000024430106,1.9999999759383282 L 1.195090049841503,1.9807852746999133 L 1.1950902823782403,1.9807852402187827 L 1.1950902942704142,1.9807850054404639 L 1.1963286242477622,1.1943607131230427 L 1.196328673904526,1.1943597334216194 L 1.1963288193114006,1.1943587632991972 L 1.1963290590691633,1.1943578120910767 L 1.1963293908706718,1.19435688895055 L 1.1963298115230643,1.19435600276082 L 1.196330316978484,1.1943551620495187 L 1.196330902373031,1.1943543749066492 L 1.196331562073567,1.1943536489067346 L 1.196332289731921,1.1943529910359318 L 1.1963330783459776,1.1943524076248049 L 1.1963339203270555,1.194351904287406 L 1.1963348075729343,1.1943514858672535 L 1.1963357315458178,1.194351156390724 L 1.196336683354494,1.1943509190283064 L 1.1963376538398915,1.1943507760640932 L 1.1963386336632171,1.1943507288738016 L 1.9807850050204479,1.1950902936526884 L 1.9807852401874582,1.1950902823145046 L 1.9807852747410628,1.195090049423705 L 1.9999999759381144,1.000000244304011 L 1.9999999879400328,0.9999999999999984 L 1.9999999759383282,0.99999975569894 L 1.9807852746046948,0.8049099491917296 L 1.9807852402911883,0.8049097174753406 L 1.9807850064182917,0.8049097043083199 L 1.1987118581403768,0.7991224066410985 L 1.1987108858127513,0.7991223520244304 L 1.1987099234085143,0.7991222030879463 L 1.198708980055146,0.7991219612441659 L 1.1987080646994475,0.7991216287867453 L 1.1987071860226883,0.7991212088687237 L 1.1987063523582746,0.7991207054726207 L 1.1987055716127122,0.7991201233726648 L 1.1987048511906238,0.7991194680895153 L 1.198704197924521,0.7991187458379037 L 1.1987036180100055,0.7991179634676931 L 1.1987031169470097,0.7991171283989139 L 1.1987026994876353,0.7991162485513917 L 1.1987023695910834,0.7991153322696356 L 1.1987021303861063,0.7991143882436981 L 1.1987019841413336,0.7991134254267591 L 1.1987019322437562,0.7991124529502128 L 1.196816507349708,0.38955637358965817 L 1.1968165516542344,0.3895553861524465 L 1.1968166932243867,0.3895544079126855 L 1.1968169306770307,0.38955344842772993 L 1.1968172616922659,0.3895525170717013 L 1.1968176830360895,0.3895516229439026 L 1.196818190591993,0.3895507747799191 L 1.1968187794011798,0.38954998086627163 L 1.1968194437110127,0.38954924895945786 L 1.1968201770312168,0.3895485862101718 L 1.1968209721972898,0.3895479990934418 L 1.1968218214404973,0.38954749334536976 L 1.1968227164637748,0.3895470739070897 L 1.1968236485227883,0.38954674487649327 L 1.1968246085113665,0.38954650946819336 L 1.1968255870504678,0.38954636998211767 L 1.1968265745798128,0.3895463277810383 L 1.1968275614512875,0.3895463832772579 L 1.1968285380232058,0.3895465359285809 L 1.1968294947545075,0.3895467842436114 L 1.4967300907523693,0.4834299538152012 L 1.4967303158839835,0.48343001220238807 L 1.4967303247113686,0.48342977979028623 L 1.4949277668492853,0.32889808332859755 L 1.494927751886948,0.32889784057507515 L 1.4949275526969357,0.3288977010169072 L 1.195662143452125,0.1407503524943571 L 1.1956613210167961,0.14074977584377502 L 1.1956605605790924,0.1407491195966701 L 1.1956598698112657,0.14074839037408846 L 1.1956592556826506,0.14074759553334457 L 1.1956587243893488,0.14074674309379148 L 1.1956582812917158,0.1407458416559115 L 1.195657930860277,0.14074490031454362 L 1.1956576766306262,0.14074392856712342 L 1.1956575211677516,0.14074293621786102 L 1.195657466040158,0.14074193327882376 L 1.1950902950263262,0.019214994041469986 L 1.195090282456153,0.01921475974276616 L 1.1950900503547248,0.0192147253506347 L 1.000000244126368,2.4044389269689674e-08 L 1.000000005304046,1.2316928837753154e-08 L 0.999999750553955,2.4568332601585075e-08 L 0.8049099497300878,0.01921472534228138 L 0.8049097175566936,0.01921475974911834 L 0.8049097050983713,0.01921499412724201 L 0.80440463920003,0.14074193127617532 L 0.8044045845530375,0.1407429345473002 L 0.8044044295046754,0.1407439272704485 L 0.8044041756202175,0.14074489942369045 L 0.8044038254627274,0.14074584119275757 L 0.804403382567182,0.14074674307012158 L 0.8044028514047858,0.14074759595097652 L 0.8044022373378318,0.14074839122515548 L 0.8044015465655667,0.1407491208640535 L 0.8044007860616076,0.14074977750167958 L 0.8043999635035405,0.1407503545090192 L 0.5052708713674554,0.32889770082937353 L 0.5052706720095496,0.32889784058229443 L 0.505270657331659,0.3288980836028974 L 0.5036671187389249,0.4834297799302323 L 0.5036671278546428,0.4834300122219953 L 0.5036673528673936,0.4834299538111988 L 0.803359814697544,0.389546785483097 L 0.8033607712181458,0.3895465370121826 L 0.8033617475932614,0.3895463841688299 L 0.8033627342869334,0.3895463284458132 L 0.803363721662426,0.38954637038736234 L 0.8033647000763443,0.38954650958384685 L 0.8033656599728184,0.38954674467577727 L 0.8033665919768328,0.38954707336708244 L 0.8033674869857887,0.3895474924475349 L 0.8033683362584072,0.38954799782410376 L 0.8033691315001019,0.3895485845609305 L 0.8033698649439902,0.38954924692753573 L 0.8033705294267495,0.38954997845478706 L 0.8033711184585797,0.38955077199808136 L 0.8033716262865868,0.38955161980712355 L 0.8033720479509698,0.38955251360162174 L 0.8033723793334615,0.389553444652158 L 0.8033726171975503,0.38955440386544615 L 0.8033727592200901,0.389555381873143 L 0.8033728040139905,0.389556369123346 L 0.8016935991876393,0.7999036298903149 L 0.8016935476906932,0.7999046033422623 L 0.801693401657835,0.7999055671550209 L 0.8016931624767575,0.7999065121698575 L 0.8016928324203042,0.7999074294066684 L 0.8016924146248717,0.7999083101493129 L 0.8016919130606056,0.7999091460284407 L 0.8016913324936735,0.7999099291010214 L 0.8016906784409745,0.7999106519258247 L 0.8016899571177138,0.7999113076341309 L 0.8016891753783424,0.7999118899950023 L 0.8016883406514218,0.7999123934744927 L 0.8016874608690332,0.7999128132882348 L 0.8016865443914023,0.7999131454469038 L 0.8016855999274553,0.7999133867941267 L 0.801684636452061,0.799913535036476 L 0.801683663120747,0.7999135887652628 L 0.019214993752651142,0.8049097045551072 L 0.019214759721417833,0.8049097175007426 L 0.019214725378716692,0.8049099493601545 L 2.4061900085899827e-08,0.9999997556958419 L 1.2059967095385485e-08,1.0000000000000018 z" />
</svg>