<?xml version="1.0" standalone="no"?>
<!DOCTYPE svg PUBLIC "-//W3C//DTD SVG 1.1//EN" 
  "http://www.w3.org/Graphics/SVG/1.1/DTD/svg11.dtd">
<svg width="1.9999999758799896m" height="1.9999999758799896m" viewBox="0 0 1.9999999758799896 1.9999999758799896"
     xmlns="http://www.w3.org/2000/svg" version="1.1">
<desc>Outline to SVG export</desc>
	<path fill-rule="evenodd" fill="#000000" stroke="#555555" stroke-width="0" opacity="1" d="M 0.8049099504195472,0.019214725274375444 L 0.8049097084684995,0.019214761164448473 L 0.8049094712003475,0.019214820597021218 L 0.6173167789716836,0.07612042453531291 L 0.6173165486710898,0.07612050693816524 L 0.6173163275563509,0.0761206115176378 L 0.44442997171048726,0.16853028884627202 L 0.4444297619110397,0.1685304145952208 L 0.44442956544739165,0.16853056030260433 L 0.2928934206783624,0.29289307518034136 L 0.2928932394427422,0.2928932394427422 L 0.29289307518034136,0.2928934206783624 L 0.16853056030260433,0.44442956544739165 L 0.1685304145952208,0.4444297619110397 L 0.16853028884627202,0.44442997171048726 L 0.0761206115176378,0.6173163275563509 L 0.07612050693816524,0.6173165486710898 L 0.07612042453531291,0.6173167789716836 L 0.019214820597021218,0.8049094712003475 L 0.019214761164448473,0.8049097084684995 L 0.019214725274375444,0.8049099504195472 L 2.4061938167100626e-08,0.9999997556954553 L 1.2060005291640751e-08,1.0 L 2.4061938164372306e-08,1.0000002443045446 L 0.019214725274386266,1.1950900495805628 L 0.019214761164437974,1.1950902915315034 L 0.019214820596968326,1.1950905287995528 L 0.07612042453524923,1.3826832806326765 L 0.07612050693819165,1.3826835109335442 L 0.07612061151780541,1.3826837320485328 L 0.16853028884643906,1.5555700282898999 L 0.1685304145951867,1.5555702380889838 L 0.16853056030230093,1.5555704345523134 L 0.2928930751798512,1.7071066389256104 L 0.29289323944279916,1.7071068201618442 L 0.2928934206790759,1.7071069844247397 L 0.4444295654480332,1.8314693800934267 L 0.4444297619109878,1.831469525800209 L 0.44442997170964194,1.831469651548706 L 0.6173163275560857,1.9238793884821457 L 0.6173165486711056,1.9238794930618057 L 0.6173167789720014,1.9238795754647835 L 0.8049094712003513,1.9807851794029798 L 0.8049097084684981,1.9807852388355514 L 0.8049099504195459,1.9807852747256245 L 0.9999997556954554,1.9999999759380618 L 1.0,1.9999999879399948 L 1.0000002443045446,1.9999999759380618 L 1.1950900495805619,1.9807852747256138 L 1.1950902915315038,1.9807852388355618 L 1.195090528799554,1.9807851794030313 L 1.3826832806323568,1.9238795754648477 L 1.382683510933531,1.9238794930617784 L 1.3826837320487944,1.92387938848198 L 1.5555700282907445,1.8314696515485394 L 1.555570238089035,1.8314695258002434 L 1.5555704345516739,1.8314693800937283 L 1.7071066389248963,1.7071069844252305 L 1.7071068201617872,1.7071068201617872 L 1.7071069844252305,1.7071066389248963 L 1.8314693800937283,1.5555704345516739 L 1.8314695258002434,1.555570238089035 L 1.8314696515485394,1.5555700282907445 L 1.92387938848198,1.3826837320487944 L 1.9238794930617784,1.382683510933531 L 1.9238795754648477,1.3826832806323568 L 1.9807851794030313,1.195090528799554 L 1.9807852388355618,1.1950902915315038 L 1.9807852747256138,1.1950900495805619 L 1.9999999759380618,1.0000002443045446 L 1.9999999879399948,1.0 L 1.9999999759380618,0.9999997556954554 L 1.9807852747256245,0.8049099504195459 L 1.9807852388355514,0.8049097084684981 L 1.9807851794029798,0.8049094712003513 L 1.9238795754647835,0.6173167789720014 L 1.9238794930618057,0.6173165486711056 L 1.9238793884821457,0.6173163275560857 L 1.831469651548706,0.44442997170964194 L 1.831469525800209,0.4444297619109878 L 1.8314693800934267,0.4444295654480332 L 1.7071069844247397,0.2928934206790759 L 1.7071068201618442,0.29289323944279916 L 1.7071066389256104,0.2928930751798512 L 1.5555704345523134,0.16853056030230093 L 1.5555702380889838,0.1685304145951867 L 1.5555700282898999,0.16853028884643906 L 1.3826837320485328,0.07612061151780541 L 1.3826835109335442,0.07612050693819165 L 1.3826832806326765,0.07612042453524923 L 1.1950905287995528,0.019214820596968326 L 1.1950902915315034,0.019214761164437974 L 1.1950900495805628,0.019214725274386266 L 1.0000002443045446,2.4061938164372306e-08 L 1.0,1.2060005291640751e-08 L 0.9999997556954553,2.4061938167100626e-08 L 0.8049099504195472,0.019214725274375444 z" />
</svg>