<?xml version="1.0" standalone="no"?>
<!DOCTYPE svg PUBLIC "-//W3C//DTD SVG 1.1//EN" 
  "http://www.w3.org/Graphics/SVG/1.1/DTD/svg11.dtd">
<svg width="1.9999999758800673m" height="1.9999999756426796m" viewBox="0 0 1.9999999758800673 1.9999999756426796"
     xmlns="http://www.w3.org/2000/svg" version="1.1">
<desc>Outline to SVG export</desc>
	<path fill-rule="evenodd" fill="#000000" stroke="#555555" stroke-width="0" opacity="1" d="M 2.406205130245749e-08,0.9999993980679536 L 1.2141946880045811e-08,0.9999996407034981 L 1.2059970477868143e-08,0.9999996423721403 L 2.4061250162134024e-08,0.9999998866674643 L 0.019214725395310037,1.1950896931804516 L 0.019214759708807858,1.1950899248967985 L 0.01921499358165485,1.1950899380638855 L 0.8012881418597817,1.200877474146601 L 0.8012891141873819,1.2008775287635647 L 0.8012900765915651,1.2008776777003396 L 0.801291019944852,1.2008779195444033 L 0.8012919353004422,1.2008782520020973 L 0.8012928139770671,1.2008786719203797 L 0.8012936476413226,1.2008791753167283 L 0.8012944283867037,1.2008797574169128 L 0.8012951488085903,1.2008804127002715 L 0.8012958020744726,1.200881134952071 L 0.8012963819887509,1.2008819173224468 L 0.8012968830514952,1.2008827523913668 L 0.8012973005106063,1.2008836322390042 L 0.8012976304068858,1.2008845485208495 L 0.801297869611584,1.2008854925468486 L 0.8012980158560741,1.2008864553638219 L 0.8012980677533675,1.2008874278403747 L 0.8031833734449981,1.6104435072043974 L 0.8031833291401957,1.6104444946414733 L 0.8031831875697947,1.610445472881074 L 0.8031829501169305,1.610446432365848 L 0.8031826191015057,1.6104473637216785 L 0.8031821977575239,1.6104482578492665 L 0.8031816902014944,1.610449106013031 L 0.8031811013922137,1.6104498999264554 L 0.8031804370823183,1.610450631833046 L 0.8031797037620821,1.610451294582113 L 0.8031789085960063,1.6104518816986315 L 0.8031780593528228,1.6104523874465033 L 0.8031771643295944,1.6104528068845976 L 0.803176232270652,1.6104531359150254 L 0.8031752722821641,1.6104533713231763 L 0.8031742937431692,1.610453510809125 L 0.8031733062139431,1.6104535530101005 L 0.8031723193425963,1.6104534975138014 L 0.8031713427708111,1.610453344862424 L 0.8031703860396443,1.6104530965473645 L 0.5032698496429415,1.5165699269755102 L 0.5032696245113618,1.5165698685883164 L 0.5032696156838904,1.5165701010003814 L 0.5050721139415207,1.6711017974620597 L 0.5050721289037698,1.6711020402156356 L 0.5050723280937959,1.6711021797738694 L 0.804337618128107,1.859249528294441 L 0.8043384405635777,1.8592501049453618 L 0.8043392010013682,1.8592507611928417 L 0.8043398917692209,1.8592514904158264 L 0.8043405058977968,1.859252285256993 L 0.8043410371909904,1.8592531376969794 L 0.8043414802884447,1.8592540391352934 L 0.8043418307196324,1.8592549804770861 L 0.8043420849489609,1.8592559522249117 L 0.8043422404114433,1.85925694457455 L 0.8043422955385776,1.8592579475139235 L 0.8049094069505699,1.9807848867492601 L 0.8049094195206266,1.9807851210479526 L 0.804909651622018,1.9807851554402212 L 0.9999994576373781,1.9999999759344798 L 0.9999996972148738,1.9999999877026509 L 0.999999950972959,1.9999999754761346 L 1.1950898118512119,1.980785393866864 L 1.1950900440247179,1.980785359460156 L 1.19509005648305,1.9807851250819397 L 1.1955951223813885,1.859258187933699 L 1.1955951770283904,1.8592571846624848 L 1.1955953320767798,1.8592561919392498 L 1.1955955859612821,1.859255219785927 L 1.195595936118833,1.8592542780167867 L 1.1955963790144544,1.8592533761393601 L 1.1955969101769401,1.8592525232584554 L 1.1955975242439953,1.859251727984241 L 1.1955982150163713,1.8592509983453245 L 1.1955989755204484,1.859250341707698 L 1.1955997980786381,1.859249764700377 L 1.4947289498186593,1.6711024183798586 L 1.4947291491765258,1.6711022786269967 L 1.4947291638545022,1.671102035606469 L 1.4963327620516893,1.5165703392791041 L 1.4963327529360573,1.516570106987302 L 1.4963325279232664,1.5165701653981065 L 1.1966400660971264,1.6104533337249518 L 1.1966391095763755,1.6104535821958972 L 1.1966381332011062,1.6104537350392512 L 1.1966371465072803,1.610453790762239 L 1.1966361591316381,1.6104537488206307 L 1.1966351807175786,1.6104536096240578 L 1.1966342208209764,1.6104533745320109 L 1.1966332888168512,1.6104530458405628 L 1.1966323938078054,1.6104526267599437 L 1.1966315445351217,1.610452121383187 L 1.1966307492933894,1.610451534646155 L 1.1966300158494942,1.6104508722793307 L 1.1966293513667607,1.6104501407518503 L 1.196628762334991,1.610449347208322 L 1.1966282545070799,1.6104484993990449 L 1.1966278328428293,1.610447605604316 L 1.1966275014605063,1.6104466745535584 L 1.196627263596622,1.6104457153400629 L 1.196627121574321,1.6104447373321775 L 1.1966270767806917,1.61044375008181 L 1.198306400809491,1.2000963701113332 L 1.1983064523067295,1.2000953966592964 L 1.1983065983398973,1.2000944328464789 L 1.1983068375212986,1.200093487831616 L 1.1983071675780863,1.2000925705948144 L 1.19830758537386,1.2000916898522158 L 1.1983080869384701,1.2000908539731723 L 1.1983086675057444,1.200090070900715 L 1.1983093215587797,1.2000893480760746 L 1.1983100428823659,1.200088692367971 L 1.1983108246220477,1.200088110007341 L 1.198311659349259,1.2000876065281298 L 1.1983125391319143,1.2000871867147034 L 1.1983134556097834,1.2000868545563839 L 1.1983144000739359,1.2000866132095418 L 1.198315363549499,1.200086464967602 L 1.1983163368809417,1.200086411239249 L 1.9807850062472718,1.1950906530726502 L 1.9807852402785766,1.1950906401271146 L 1.9807852746212904,1.1950904082676423 L 1.9999999759381066,1.0000006019319596 L 1.9999999879400379,1.000000357627898 L 1.9999999874565229,1.000000347785623 L 1.9999999759382656,1.000000113323728 L 1.980785393826286,0.8049101877368666 L 1.9807853594909992,0.8049099559129934 L 1.9807851254991278,0.8049099429121187 L 1.1983164532898611,0.7997158230393993 L 1.1983154801469702,0.7997157690825937 L 1.1983145168786962,0.7997156206485844 L 1.1983135726353018,0.7997153791473731 L 1.1983126563863291,0.7997150468730246 L 1.1983117768353957,0.799714626981874 L 1.198310942337518,0.7997141234625447 L 1.198310160819745,0.7997135410980596 L 1.1983094397058582,0.7997128854204062 L 1.1983087858458512,0.7997121626579873 L 1.1983082054508607,0.7997113796764563 L 1.1983077040341654,0.7997105439134992 L 1.1983072863588153,0.7997096633081819 L 1.1983069563923852,0.7997087462255369 L 1.1983067172692867,0.7997078013771011 L 1.1983065712609948,0.7997068377381638 L 1.198306519754469,0.7997058644625087 L 1.195090652520786,0.01921511334241827 L 1.1950906400702865,0.019214878958837032 L 1.1950904078919735,0.01921484455085009 L 1.000000601927675,2.4061620770686968e-08 L 1.0000003576278667,1.205997121106561e-08 L 1.0000001133324372,2.4061257676706462e-08 L 0.8049103077863153,0.01921472530009164 L 0.8049100752496208,0.019214759781213592 L 0.8049100633573802,0.019214994559485075 L 0.8036714949645595,0.8056391676676673 L 0.8036714453074983,0.8056401473690759 L 0.8036712999003294,0.8056411174914543 L 0.8036710601422778,0.8056420686995022 L 0.803670728340489,0.8056429918399285 L 0.8036703076878274,0.8056438780295313 L 0.8036698022321523,0.8056447187406792 L 0.8036692168373661,0.8056455058833715 L 0.8036685571366095,0.805646231883086 L 0.8036678294780555,0.8056468897536678 L 0.8036670408638216,0.8056474731645555 L 0.8036661988825903,0.805647976501699 L 0.8036653116365842,0.8056483949215819 L 0.8036643876636002,0.8056487243978308 L 0.8036634358548517,0.8056489617599593 L 0.8036624653694104,0.8056491047238776 L 0.8036614855460701,0.8056491519138715 L 0.019215114188790156,0.8049093487195176 L 0.01921487902182071,0.8049093600576254 L 0.01921484446808336,0.8049095929483646 L 2.406205130245749e-08,0.9999993980679536 z" />
</svg>