<?xml version="1.0" encoding="UTF-8"?>
<!DOCTYPE svg PUBLIC "-//W3C//DTD SVG 1.1//EN" "http://www.w3.org/Graphics/SVG/1.1/DTD/svg11.dtd">
<!-- Creator: CorelDRAW X6 -->
<svg xmlns="http://www.w3.org/2000/svg" xml:space="preserve" width="282.197mm" height="211.572mm" version="1.1" style="shape-rendering:geometricPrecision; text-rendering:geometricPrecision; image-rendering:optimizeQuality; fill-rule:evenodd; clip-rule:evenodd"
viewBox="0 0 759 569"
 xmlns:xlink="http://www.w3.org/1999/xlink">
 <defs>
  <style type="text/css">
   <![CDATA[
    .str0 {stroke:#FFFFFF;stroke-width:0.948338}
    .fil0 {fill:#000000}
    .fil1 {fill:#FFFFFF}
   ]]>
  </style>
 </defs>
 <g id="voronoisvg">
  <metadata id="CorelCorpID_0Corel-Layer"/>
  <path class="fil0" d="M4 0c-2,0 -3,1 -3,4 0,3 0,9 0,11 0,3 1,3 3,0 2,-3 6,-8 8,-11 2,-3 2,-4 0,-4 -2,0 -6,0 -8,0z"/>
  <path class="fil0" d="M2 35c0,-1 0,0 0,0 0,1 0,2 0,3 0,1 0,1 0,1 0,0 1,0 1,-1 0,0 0,0 0,-1 0,-1 -1,-2 -1,-2z"/>
  <path class="fil0" d="M2 41c0,1 0,2 -1,10 0,8 0,21 0,28 0,7 1,8 4,4 4,-3 10,-10 13,-15 3,-4 4,-5 3,-9 -1,-3 -2,-8 -4,-11 -1,-3 -2,-4 -4,-5 -2,-1 -6,-3 -8,-4 -2,-1 -3,-1 -3,-1 -1,0 -1,0 -2,1z"/>
  <path class="fil0" d="M2 116c0,0 0,0 0,0 0,0 0,1 0,2 0,0 0,0 0,0 0,0 0,0 1,0 0,0 0,0 0,-1 0,0 0,-1 -1,-1z"/>
  <path class="fil0" d="M2 120c0,1 0,2 0,10 0,8 0,22 0,29 0,7 1,8 4,3 3,-4 9,-14 12,-19 3,-5 4,-6 3,-9 -1,-2 -2,-6 -3,-8 -1,-2 -2,-3 -4,-4 -2,-1 -6,-3 -8,-3 -2,-1 -3,-1 -3,-1 -1,0 -1,0 -1,1z"/>
  <path class="fil0" d="M2 192c0,0 0,0 0,0 0,0 0,1 0,1 0,0 0,0 0,0 0,0 0,0 0,0 0,0 0,0 0,0 0,0 0,-1 0,-1z"/>
  <path class="fil0" d="M4 195c-2,0 -3,1 -3,9 0,8 0,23 0,31 0,8 1,8 4,4 3,-4 8,-13 11,-18 3,-5 3,-6 3,-9 0,-3 -2,-6 -3,-9 -1,-2 -2,-3 -4,-4 -2,-1 -6,-4 -8,-4z"/>
  <polygon class="fil1 str0" points="0,268 1,267 0,265 "/>
  <path class="fil0" d="M5 270c-3,-1 -3,1 -3,9 0,8 0,24 0,32 0,8 1,9 4,5 3,-4 10,-13 13,-18 3,-5 4,-6 3,-9 0,-3 -2,-7 -3,-9 -1,-2 -2,-3 -4,-5 -3,-2 -7,-4 -10,-5z"/>
  <path class="fil0" d="M2 341c0,-1 0,-1 0,0 0,1 0,2 0,3 0,1 0,1 0,1 0,0 0,0 1,0 0,0 0,0 0,-1 0,-1 0,-2 -1,-2z"/>
  <path class="fil0" d="M2 346c0,1 0,2 0,10 0,8 0,23 0,31 0,8 1,8 4,4 3,-4 9,-13 12,-18 3,-5 3,-6 3,-9 -1,-3 -2,-7 -3,-9 -1,-2 -1,-3 -4,-4 -2,-1 -6,-3 -7,-4 -2,-1 -2,-1 -3,-1 -1,0 -1,0 -1,1z"/>
  <path class="fil0" d="M2 416c0,-1 0,-1 0,0 0,1 0,2 0,3 0,1 0,1 0,1 0,0 1,0 1,0 0,0 0,0 0,-1 0,-1 -1,-2 -1,-2z"/>
  <path class="fil0" d="M2 422c0,1 0,2 0,10 0,8 0,22 0,29 0,7 1,8 4,5 3,-3 8,-11 11,-15 3,-4 3,-6 2,-9 -1,-3 -3,-9 -5,-12 -1,-3 -2,-4 -3,-5 -1,-1 -4,-2 -5,-3 -1,-1 -2,-1 -2,-1 -1,0 -1,0 -1,1z"/>
  <polygon class="fil1 str0" points="0,496 2,495 0,491 "/>
  <path class="fil0" d="M5 498c-2,-1 -3,0 -3,8 0,8 0,22 0,29 0,7 1,8 4,4 3,-4 9,-12 12,-16 3,-5 3,-6 3,-8 0,-2 -2,-6 -3,-8 -1,-2 -2,-3 -4,-4 -2,-2 -7,-4 -9,-5z"/>
  <polygon class="fil1 str0" points="1,568 0,567 0,568 "/>
  <path class="fil0" d="M48 0c-4,0 -4,0 -3,1 2,1 5,3 7,4 2,1 3,1 5,0 2,-1 6,-3 8,-4 2,-1 2,-1 -2,-1 -4,0 -12,0 -16,0z"/>
  <path class="fil0" d="M4 36c1,1 1,2 3,3 2,1 6,3 8,4 2,1 4,0 8,-2 4,-2 12,-7 16,-10 4,-3 5,-4 7,-7 2,-3 4,-9 5,-12 1,-3 1,-4 -1,-6 -2,-2 -6,-4 -9,-5 -3,-1 -4,-1 -7,-2 -4,0 -10,0 -13,0 -4,0 -5,1 -8,4 -3,3 -7,10 -9,13 -2,4 -3,4 -3,6 0,1 0,3 0,4 0,1 0,2 1,3 0,1 1,4 2,5z"/>
  <path class="fil0" d="M25 60c1,3 2,4 6,8 4,3 11,9 16,12 4,3 6,3 8,3 3,-1 7,-2 9,-4 2,-1 3,-2 4,-5 1,-3 3,-8 4,-11 1,-3 0,-5 -4,-10 -4,-5 -12,-13 -16,-18 -5,-4 -6,-5 -11,-3 -5,2 -12,7 -16,9 -4,3 -5,4 -4,7 1,3 2,8 4,11z"/>
  <path class="fil0" d="M4 116c1,1 1,1 3,2 2,1 5,3 8,3 2,1 4,0 8,-3 4,-3 12,-9 16,-12 4,-3 5,-5 7,-8 1,-3 3,-7 4,-10 1,-3 0,-4 -4,-7 -4,-3 -11,-9 -15,-12 -4,-3 -6,-2 -10,1 -4,4 -11,11 -14,16 -4,4 -4,6 -5,9 0,3 0,9 0,12 0,3 0,4 1,5 0,1 1,3 2,4z"/>
  <path class="fil0" d="M22 134c1,2 2,3 7,7 5,4 13,10 18,14 5,3 6,4 9,4 2,0 6,-2 8,-3 2,-1 3,-2 4,-5 2,-3 4,-8 5,-12 1,-3 0,-5 -5,-10 -5,-5 -14,-14 -19,-19 -5,-5 -7,-5 -11,-2 -5,3 -12,9 -16,12 -4,4 -5,4 -4,7 0,2 2,5 3,8z"/>
  <path class="fil0" d="M3 192c1,1 1,1 3,2 2,1 5,3 7,4 2,1 4,0 8,-3 5,-3 13,-9 18,-12 5,-3 6,-5 7,-8 2,-3 4,-8 4,-11 1,-3 0,-4 -5,-8 -5,-4 -13,-10 -18,-13 -5,-3 -7,-3 -10,2 -4,5 -10,14 -13,20 -3,5 -4,7 -4,10 0,3 0,7 0,9 0,2 0,3 0,4 0,1 1,3 1,4z"/>
  <path class="fil0" d="M21 212c1,2 2,4 8,7 5,4 15,10 20,13 5,3 7,4 9,3 2,-1 6,-2 8,-4 2,-1 3,-2 4,-4 1,-2 3,-6 4,-9 1,-3 0,-4 -4,-10 -4,-6 -12,-16 -17,-21 -5,-5 -6,-5 -11,-3 -5,3 -13,8 -18,12 -4,4 -5,5 -5,7 0,2 2,6 3,8z"/>
  <path class="fil0" d="M1 263c0,3 1,4 3,5 3,2 7,4 10,5 3,1 5,1 10,-3 5,-3 14,-10 19,-14 5,-4 6,-5 7,-7 1,-2 3,-6 3,-9 0,-2 0,-3 -6,-7 -5,-4 -14,-10 -20,-13 -5,-3 -7,-3 -11,2 -4,5 -9,14 -12,19 -3,5 -4,7 -4,10 0,3 0,8 0,11z"/>
  <path class="fil0" d="M24 288c1,3 2,4 7,7 5,3 14,9 19,12 5,3 6,4 8,3 2,0 5,-1 6,-2 2,-1 2,-2 4,-4 1,-3 4,-7 4,-11 1,-3 0,-5 -3,-11 -4,-6 -11,-16 -15,-21 -4,-5 -6,-6 -11,-3 -5,3 -14,9 -18,13 -5,4 -5,5 -5,7 0,2 2,6 3,9z"/>
  <path class="fil0" d="M4 341c1,2 1,2 3,3 2,1 5,3 7,4 2,1 4,0 9,-2 5,-3 14,-8 18,-11 5,-3 6,-4 8,-8 2,-3 4,-8 5,-11 1,-3 0,-4 -5,-8 -5,-3 -13,-9 -18,-12 -5,-3 -7,-2 -11,2 -4,5 -10,14 -14,19 -4,5 -4,6 -5,8 0,2 0,4 0,5 0,1 0,2 1,4 0,2 1,5 2,6z"/>
  <path class="fil0" d="M22 364c1,3 2,4 8,7 5,3 15,9 20,12 5,3 7,3 8,3 2,0 4,-1 5,-2 1,-1 2,-1 3,-4 1,-3 3,-7 4,-10 1,-3 0,-5 -3,-10 -3,-5 -10,-15 -14,-20 -4,-5 -5,-5 -11,-3 -5,2 -13,8 -18,11 -5,3 -5,4 -5,7 0,2 2,7 3,9z"/>
  <path class="fil0" d="M4 417c1,1 1,2 2,3 1,1 3,2 5,3 2,1 3,0 8,-2 5,-3 15,-7 20,-10 5,-3 7,-4 8,-7 2,-3 4,-8 5,-11 1,-3 0,-4 -5,-8 -5,-3 -14,-9 -19,-11 -5,-3 -7,-2 -11,3 -4,5 -9,14 -13,19 -3,5 -4,6 -4,8 0,2 0,4 0,5 0,1 0,2 1,4 0,2 1,4 2,6z"/>
  <path class="fil0" d="M21 441c2,3 3,4 8,7 5,3 14,8 19,10 5,3 6,3 8,2 2,0 5,-2 6,-3 2,-1 2,-2 3,-4 1,-2 3,-6 3,-8 1,-3 0,-4 -3,-10 -3,-6 -10,-15 -14,-21 -4,-5 -6,-6 -11,-4 -6,2 -15,7 -20,10 -5,3 -6,4 -5,7 1,3 3,8 5,12z"/>
  <path class="fil0" d="M2 494c0,1 1,1 3,2 2,1 6,4 9,5 3,1 4,1 9,-3 5,-3 13,-9 17,-13 5,-4 6,-5 7,-8 1,-3 3,-8 4,-11 1,-3 0,-4 -5,-7 -5,-3 -14,-8 -19,-10 -5,-2 -7,-2 -10,2 -4,4 -9,12 -12,17 -3,5 -4,6 -4,9 0,3 0,8 0,10 0,3 0,3 0,4 0,1 0,2 1,2z"/>
  <path class="fil0" d="M22 514c1,2 2,3 7,7 5,4 13,10 18,13 5,3 6,4 9,3 2,0 6,-2 8,-3 2,-1 3,-2 4,-4 1,-3 3,-7 4,-10 1,-3 0,-5 -4,-10 -4,-6 -11,-15 -16,-20 -5,-5 -6,-5 -11,-3 -5,3 -13,9 -17,12 -4,4 -5,5 -5,7 0,2 2,6 3,8z"/>
  <path class="fil0" d="M1 563c1,3 2,4 8,4 6,0 17,0 24,0 6,0 8,-1 10,-6 2,-4 6,-12 7,-17 1,-5 1,-6 -4,-10 -5,-4 -13,-10 -18,-13 -5,-3 -6,-3 -10,2 -4,4 -10,12 -13,17 -3,5 -4,6 -4,10 0,3 -1,9 0,12z"/>
  <path class="fil0" d="M76 0c-7,0 -8,1 -3,5 5,4 14,11 20,14 5,3 7,3 10,0 3,-3 7,-10 9,-14 2,-4 1,-4 -7,-5 -7,0 -21,0 -29,0z"/>
  <path class="fil0" d="M49 25c-1,3 0,5 4,10 4,5 12,13 16,18 5,4 6,5 11,2 5,-3 13,-9 17,-12 4,-3 5,-4 5,-7 0,-2 -2,-6 -3,-8 -1,-2 -2,-3 -7,-7 -5,-4 -14,-10 -19,-13 -5,-3 -6,-4 -9,-3 -2,0 -5,2 -7,3 -2,1 -2,2 -4,5 -2,3 -4,8 -5,12z"/>
  <path class="fil0" d="M70 75c-1,3 0,4 4,8 4,3 11,9 16,12 5,3 6,2 11,-3 5,-5 13,-15 17,-21 4,-6 5,-7 5,-10 0,-3 -2,-7 -3,-10 -1,-3 -2,-3 -4,-5 -2,-1 -6,-3 -8,-4 -3,-1 -4,0 -9,3 -5,3 -13,9 -18,12 -5,3 -6,5 -7,8 -1,3 -3,8 -4,11z"/>
  <path class="fil0" d="M47 99c-1,3 0,5 5,10 5,5 14,14 19,19 5,5 7,5 11,3 4,-2 11,-7 14,-10 4,-3 4,-4 4,-7 -1,-3 -2,-7 -3,-10 -1,-3 -2,-4 -7,-7 -4,-3 -12,-9 -16,-12 -4,-3 -6,-3 -9,-3 -3,1 -7,2 -9,4 -2,1 -3,2 -5,5 -1,3 -3,7 -4,10z"/>
  <path class="fil0" d="M71 151c-1,3 0,4 4,8 5,4 13,10 18,13 5,3 7,3 11,-3 4,-5 11,-16 15,-21 4,-6 4,-8 3,-11 -1,-3 -3,-8 -4,-10 -1,-3 -2,-3 -4,-5 -2,-1 -6,-3 -8,-3 -2,-1 -4,0 -8,2 -4,3 -11,8 -15,11 -4,3 -5,4 -7,7 -2,3 -4,8 -5,12z"/>
  <path class="fil0" d="M49 175c-1,3 0,5 4,10 4,6 12,16 17,21 5,5 6,6 11,3 5,-3 13,-9 17,-12 4,-4 5,-5 5,-7 0,-2 -2,-6 -3,-8 -1,-2 -2,-4 -7,-7 -5,-4 -14,-10 -19,-13 -5,-3 -6,-4 -9,-4 -2,0 -6,2 -8,3 -2,1 -3,2 -4,4 -1,3 -3,7 -4,11z"/>
  <path class="fil0" d="M71 228c0,3 0,4 5,7 5,4 13,10 18,12 5,3 7,2 11,-2 4,-5 11,-14 15,-20 4,-5 4,-7 3,-10 -1,-3 -3,-9 -5,-12 -2,-3 -2,-4 -4,-5 -2,-1 -5,-3 -7,-3 -2,0 -3,0 -8,3 -5,3 -13,9 -17,13 -5,4 -6,5 -7,7 -1,3 -3,7 -4,9z"/>
  <path class="fil0" d="M52 250c0,3 0,4 4,10 4,6 11,16 15,22 4,5 6,6 11,3 5,-3 13,-8 17,-11 4,-3 5,-4 5,-7 0,-3 -2,-7 -3,-10 -1,-3 -2,-4 -7,-7 -5,-4 -13,-9 -18,-13 -5,-3 -6,-4 -9,-3 -2,1 -6,2 -8,4 -2,1 -2,2 -4,4 -1,2 -3,6 -3,9z"/>
  <path class="fil0" d="M71 304c-1,3 0,4 4,7 4,3 12,9 17,12 5,3 7,2 11,-3 5,-5 12,-16 16,-22 4,-6 5,-7 5,-10 0,-3 -2,-6 -3,-8 -1,-2 -2,-3 -4,-4 -2,-1 -6,-3 -8,-4 -3,-1 -4,0 -9,3 -5,3 -13,8 -18,12 -5,3 -6,4 -7,7 -2,3 -4,8 -4,10z"/>
  <path class="fil0" d="M51 328c-1,3 0,5 3,10 3,5 10,15 14,20 4,5 6,5 11,3 5,-3 14,-8 19,-12 5,-3 6,-5 5,-7 -1,-3 -3,-7 -4,-10 -2,-3 -3,-4 -7,-7 -5,-3 -13,-9 -17,-12 -5,-3 -6,-3 -8,-3 -2,0 -5,1 -6,2 -2,1 -2,2 -4,5 -2,3 -4,8 -5,11z"/>
  <path class="fil0" d="M67 380c-1,3 0,4 5,8 5,4 14,10 19,13 5,3 7,2 11,-3 4,-5 10,-16 14,-21 3,-6 4,-8 3,-11 -1,-3 -2,-8 -3,-10 -1,-3 -2,-3 -3,-4 -2,-1 -4,-3 -6,-3 -2,-1 -3,0 -9,3 -5,3 -14,9 -19,12 -5,3 -6,5 -8,7 -2,3 -3,7 -4,10z"/>
  <path class="fil0" d="M50 403c-1,3 -1,5 3,11 3,6 10,15 14,21 4,5 6,5 11,3 5,-3 14,-9 19,-13 5,-4 6,-5 5,-7 0,-2 -1,-6 -3,-8 -1,-2 -2,-3 -7,-7 -5,-4 -15,-10 -20,-13 -5,-3 -6,-4 -8,-4 -2,0 -4,1 -5,2 -1,1 -2,2 -3,4 -2,3 -4,8 -5,11z"/>
  <path class="fil0" d="M67 455c0,2 0,3 5,7 5,4 14,10 19,13 5,3 7,3 11,-3 4,-6 11,-16 15,-22 4,-6 4,-8 4,-10 0,-3 -2,-6 -3,-8 -1,-2 -2,-3 -4,-4 -2,-1 -6,-4 -9,-5 -3,-1 -4,0 -9,3 -5,3 -14,10 -19,13 -5,4 -6,5 -7,7 -1,2 -3,6 -3,8z"/>
  <path class="fil0" d="M49 478c-1,3 0,5 4,10 4,6 11,15 16,20 5,5 6,5 11,3 5,-3 12,-9 17,-12 4,-3 5,-4 5,-7 0,-2 -1,-6 -3,-8 -1,-2 -2,-3 -8,-7 -5,-4 -15,-10 -20,-14 -5,-4 -7,-4 -9,-4 -2,0 -5,2 -6,3 -1,1 -2,2 -3,5 -1,3 -3,8 -4,11z"/>
  <path class="fil0" d="M70 531c-1,3 0,4 4,7 4,3 12,9 17,12 5,3 6,2 11,-3 5,-5 12,-14 16,-20 4,-5 5,-7 4,-10 -1,-3 -3,-8 -4,-11 -1,-3 -2,-4 -4,-5 -2,-1 -5,-3 -7,-4 -2,-1 -4,0 -8,3 -5,3 -13,9 -17,12 -4,4 -6,5 -7,7 -1,3 -3,7 -4,10z"/>
  <path class="fil0" d="M45 562c-1,4 0,5 9,5 9,0 25,0 34,0 9,0 11,-1 11,-2 0,-2 -1,-5 -3,-7 -1,-2 -2,-3 -7,-6 -5,-3 -13,-9 -17,-12 -5,-3 -6,-3 -8,-3 -2,0 -6,2 -8,3 -2,1 -3,2 -5,6 -2,4 -6,12 -7,16z"/>
  <path class="fil0" d="M151 0c-3,0 -4,0 -2,2 2,1 5,4 7,5 2,1 3,1 4,1 2,-1 4,-2 6,-3 1,-1 2,-1 2,-2 0,-1 1,-2 1,-2 0,-1 -1,-1 -4,-1 -4,0 -10,0 -14,0z"/>
  <path class="fil0" d="M104 35c1,2 2,3 4,4 2,1 6,3 8,4 3,1 4,0 9,-2 5,-3 13,-8 18,-11 5,-3 6,-4 8,-7 2,-3 4,-8 4,-10 1,-3 1,-4 -1,-5 -2,-2 -6,-4 -8,-6 -3,-1 -4,-2 -8,-2 -4,0 -12,0 -16,0 -4,0 -6,1 -9,5 -3,4 -7,11 -9,15 -2,4 -3,5 -2,8 0,2 2,6 3,8z"/>
  <path class="fil0" d="M125 60c1,3 2,4 6,8 4,4 12,10 16,13 5,3 6,4 9,3 3,-1 8,-3 11,-4 3,-1 4,-2 5,-5 1,-2 3,-6 3,-9 0,-3 0,-4 -4,-10 -4,-5 -11,-15 -15,-20 -4,-5 -6,-5 -11,-3 -5,2 -13,7 -18,10 -4,3 -5,4 -5,7 0,3 2,7 3,10z"/>
  <path class="fil0" d="M102 113c1,3 2,3 4,4 2,1 6,3 8,3 3,1 4,0 9,-3 5,-3 13,-9 18,-12 5,-3 6,-5 7,-7 1,-3 3,-7 3,-10 0,-3 0,-4 -4,-7 -4,-4 -11,-10 -16,-13 -5,-3 -6,-2 -11,3 -5,5 -13,15 -17,21 -4,6 -5,7 -4,10 0,3 2,7 3,10z"/>
  <path class="fil0" d="M124 137c2,3 3,4 8,7 5,3 14,8 19,11 5,3 6,3 9,3 2,0 5,-2 7,-3 2,-1 2,-2 4,-4 1,-3 3,-7 4,-11 1,-3 0,-5 -4,-10 -4,-5 -12,-15 -17,-20 -5,-5 -6,-5 -11,-3 -5,2 -13,8 -17,12 -4,3 -5,5 -4,7 1,3 3,7 4,10z"/>
  <path class="fil0" d="M104 190c1,2 2,3 3,4 2,1 5,3 7,3 2,1 3,0 8,-2 5,-3 13,-7 17,-10 5,-3 6,-4 8,-7 2,-3 4,-9 5,-12 1,-3 0,-4 -4,-8 -5,-3 -13,-8 -18,-11 -5,-2 -7,-2 -11,4 -4,5 -11,16 -15,22 -4,6 -4,7 -4,10 0,3 2,6 3,9z"/>
  <path class="fil0" d="M125 215c2,3 3,4 7,7 5,3 13,8 17,10 5,3 6,3 9,2 3,-1 6,-3 8,-4 2,-1 3,-2 4,-4 1,-2 2,-5 3,-7 0,-2 0,-4 -5,-9 -4,-6 -12,-15 -16,-21 -5,-5 -6,-6 -11,-3 -5,2 -13,7 -17,10 -4,3 -5,4 -4,7 1,3 3,8 5,11z"/>
  <path class="fil0" d="M106 266c1,3 2,3 4,5 2,1 6,3 8,4 2,1 4,0 8,-2 4,-3 12,-8 16,-11 4,-3 5,-4 7,-8 2,-3 4,-9 4,-12 1,-3 0,-4 -4,-7 -4,-3 -12,-8 -17,-10 -5,-2 -6,-2 -11,3 -4,5 -11,14 -15,20 -4,5 -4,7 -4,10 1,3 2,7 4,10z"/>
  <path class="fil0" d="M126 288c1,2 2,4 7,7 4,4 12,10 17,13 5,3 6,4 8,3 3,-1 6,-2 9,-3 2,-1 3,-2 4,-5 2,-3 4,-8 5,-11 1,-3 0,-5 -4,-10 -4,-5 -13,-13 -17,-17 -5,-4 -6,-5 -11,-2 -5,2 -12,8 -15,11 -4,3 -5,4 -4,6 0,2 2,6 3,8z"/>
  <path class="fil0" d="M104 342c1,2 2,3 3,4 2,1 4,3 6,3 2,1 3,0 8,-3 5,-3 14,-8 18,-11 5,-3 6,-4 7,-7 1,-3 3,-7 4,-10 1,-3 0,-4 -4,-8 -4,-4 -12,-10 -16,-13 -5,-3 -6,-2 -11,3 -5,5 -12,16 -16,22 -4,6 -5,8 -4,10 1,3 3,7 4,10z"/>
  <path class="fil0" d="M122 365c1,3 3,4 8,7 5,3 15,9 20,12 5,3 7,3 9,3 2,-1 6,-3 8,-4 2,-1 2,-2 3,-4 1,-2 3,-7 3,-9 0,-3 0,-4 -4,-10 -4,-5 -11,-15 -16,-20 -5,-5 -6,-5 -11,-3 -5,2 -14,8 -18,11 -5,3 -5,4 -5,7 0,3 2,7 3,10z"/>
  <path class="fil0" d="M103 417c1,2 2,3 4,4 2,1 6,4 9,5 3,1 4,0 9,-3 5,-3 14,-10 19,-13 5,-4 6,-5 7,-8 1,-3 3,-7 3,-10 0,-3 0,-4 -6,-7 -5,-3 -14,-9 -20,-11 -5,-3 -7,-2 -11,3 -4,5 -10,16 -14,22 -3,6 -4,7 -4,10 0,2 2,6 3,8z"/>
  <path class="fil0" d="M124 439c1,2 2,3 7,7 5,3 14,9 19,12 5,3 6,4 8,3 2,0 4,-2 6,-2 1,-1 2,-2 4,-5 1,-3 4,-9 5,-12 1,-4 0,-5 -3,-10 -4,-5 -10,-14 -14,-18 -4,-5 -6,-5 -11,-2 -5,3 -14,9 -18,13 -5,4 -5,5 -5,7 0,2 2,6 3,8z"/>
  <path class="fil0" d="M103 492c1,2 2,3 3,4 2,1 5,3 7,4 2,1 4,0 9,-3 5,-3 14,-8 20,-12 5,-3 6,-4 8,-7 1,-3 3,-8 4,-11 0,-3 0,-4 -5,-8 -5,-3 -13,-9 -18,-12 -5,-3 -7,-2 -11,4 -4,5 -11,16 -15,22 -4,6 -4,8 -4,10 0,2 2,6 3,8z"/>
  <path class="fil0" d="M124 517c2,3 3,4 7,7 5,3 13,8 18,11 5,3 6,3 9,2 2,-1 6,-2 8,-4 2,-1 3,-2 4,-4 1,-2 3,-7 3,-10 0,-3 0,-4 -4,-10 -4,-6 -10,-15 -14,-20 -4,-5 -6,-5 -11,-3 -5,2 -14,8 -19,11 -5,3 -6,4 -5,7 1,3 3,8 4,11z"/>
  <path class="fil0" d="M102 565c1,2 3,2 9,2 7,0 18,0 25,0 7,0 8,-1 10,-5 2,-4 5,-12 6,-16 1,-4 1,-6 -4,-9 -4,-3 -12,-8 -17,-11 -5,-2 -6,-2 -11,3 -5,5 -12,14 -16,20 -4,5 -5,7 -4,9 0,2 1,5 3,7z"/>
  <path class="fil0" d="M170 4c0,1 1,2 6,5 5,3 13,9 18,11 5,3 6,3 9,-1 3,-3 8,-10 10,-14 2,-4 1,-4 -6,-5 -7,0 -20,0 -27,0 -7,0 -9,0 -9,1 -1,1 -1,2 -1,3z"/>
  <path class="fil0" d="M153 24c-1,3 0,5 4,10 4,5 11,15 15,20 4,5 6,5 11,3 5,-3 13,-8 17,-12 4,-3 5,-4 4,-7 -1,-3 -2,-7 -4,-10 -1,-3 -2,-4 -7,-7 -5,-3 -13,-9 -18,-12 -5,-3 -6,-3 -8,-3 -2,0 -4,2 -6,3 -1,1 -2,2 -3,4 -1,3 -4,7 -4,10z"/>
  <path class="fil0" d="M174 74c0,3 0,4 4,7 4,3 11,9 15,12 4,3 6,2 10,-3 5,-5 12,-15 16,-20 4,-6 5,-7 4,-10 -1,-3 -2,-7 -4,-9 -1,-2 -2,-3 -4,-4 -2,-1 -5,-3 -8,-3 -2,-1 -4,0 -8,3 -5,3 -13,8 -17,12 -5,3 -6,4 -7,7 -1,3 -3,7 -3,9z"/>
  <path class="fil0" d="M149 99c0,3 0,4 4,10 4,5 12,15 17,20 5,5 6,5 11,3 5,-3 12,-8 17,-12 4,-3 5,-5 4,-7 -1,-3 -2,-7 -4,-10 -1,-3 -2,-4 -6,-7 -4,-3 -11,-9 -16,-12 -4,-3 -6,-3 -9,-3 -3,1 -8,3 -11,4 -3,1 -4,2 -5,5 -1,2 -3,7 -3,10z"/>
  <path class="fil0" d="M172 151c-1,3 0,4 5,8 4,4 13,10 18,13 5,3 7,3 11,-3 4,-5 12,-16 16,-22 4,-6 5,-8 4,-11 -1,-3 -3,-8 -4,-11 -1,-3 -2,-4 -4,-5 -2,-1 -6,-3 -8,-3 -2,-1 -4,0 -8,3 -5,3 -13,9 -17,12 -4,3 -6,5 -7,8 -1,3 -3,8 -4,11z"/>
  <path class="fil0" d="M150 177c-1,4 0,5 4,11 4,6 12,15 16,21 5,5 6,5 11,2 5,-3 13,-10 17,-14 4,-4 5,-5 5,-7 0,-2 -2,-5 -3,-7 -1,-2 -2,-3 -7,-7 -5,-4 -13,-10 -18,-14 -5,-4 -6,-4 -8,-4 -2,0 -5,2 -7,3 -2,1 -2,2 -4,5 -2,3 -4,9 -5,12z"/>
  <path class="fil0" d="M172 227c0,2 1,3 5,7 4,4 13,11 17,14 5,3 7,3 11,-3 4,-6 12,-16 15,-22 4,-6 5,-8 4,-11 -1,-3 -2,-7 -3,-9 -1,-2 -2,-3 -4,-5 -2,-1 -7,-3 -10,-4 -3,-1 -4,0 -9,3 -5,4 -13,11 -17,15 -5,4 -6,5 -7,7 -1,2 -2,5 -3,7z"/>
  <path class="fil0" d="M150 253c-1,4 0,5 4,10 4,5 13,13 18,18 5,4 7,5 11,2 5,-2 12,-8 16,-11 4,-3 5,-4 4,-6 0,-2 -2,-6 -3,-9 -1,-3 -2,-4 -7,-8 -5,-4 -13,-11 -18,-14 -5,-4 -6,-4 -9,-3 -3,1 -6,2 -8,4 -2,1 -3,2 -4,5 -1,3 -4,9 -4,12z"/>
  <path class="fil0" d="M172 304c-1,3 0,4 4,8 5,4 13,10 18,13 5,3 7,2 11,-4 4,-6 11,-17 15,-24 4,-7 4,-8 4,-11 -1,-3 -2,-6 -3,-8 -1,-2 -2,-3 -4,-4 -2,-1 -5,-3 -8,-3 -2,-1 -4,0 -8,2 -5,3 -12,8 -17,11 -4,3 -5,4 -7,7 -2,3 -4,8 -5,11z"/>
  <path class="fil0" d="M150 328c-1,3 0,4 4,10 4,5 11,15 16,19 5,5 6,5 11,2 5,-3 13,-9 18,-13 4,-4 5,-5 5,-7 0,-2 -1,-5 -3,-7 -1,-2 -2,-3 -7,-7 -5,-4 -13,-10 -18,-13 -5,-3 -6,-4 -9,-3 -3,0 -6,2 -9,3 -2,1 -3,2 -4,5 -1,3 -3,7 -4,10z"/>
  <path class="fil0" d="M172 378c0,3 0,4 5,7 4,3 12,9 17,11 5,2 6,2 11,-3 4,-5 12,-15 16,-21 4,-6 5,-7 4,-10 0,-3 -2,-6 -3,-8 -1,-2 -2,-3 -4,-4 -2,-1 -6,-3 -9,-4 -3,-1 -4,0 -9,3 -5,3 -13,9 -18,13 -5,4 -6,5 -7,7 -1,3 -3,7 -3,9z"/>
  <path class="fil0" d="M153 402c0,3 0,4 4,9 4,5 10,14 14,18 4,5 6,5 11,3 5,-2 14,-7 18,-10 5,-3 5,-4 5,-7 -1,-3 -3,-8 -4,-11 -2,-3 -3,-4 -7,-7 -5,-3 -13,-8 -17,-11 -5,-3 -6,-3 -8,-2 -2,1 -6,2 -7,4 -2,1 -2,2 -4,5 -1,3 -3,7 -3,10z"/>
  <path class="fil0" d="M170 454c-1,3 0,4 4,7 4,3 13,7 18,10 5,2 7,2 11,-3 4,-4 12,-13 16,-17 4,-5 5,-6 4,-10 0,-3 -2,-8 -3,-11 -1,-3 -2,-4 -3,-5 -2,-1 -5,-3 -7,-3 -2,-1 -3,0 -8,2 -5,3 -14,7 -19,10 -5,3 -6,4 -8,8 -2,3 -4,9 -5,12z"/>
  <path class="fil0" d="M152 478c-1,3 0,5 3,10 4,6 10,15 14,20 4,5 6,5 10,3 5,-3 13,-8 17,-12 4,-3 5,-5 5,-8 -1,-3 -2,-9 -4,-12 -1,-3 -3,-4 -7,-7 -5,-3 -13,-7 -18,-10 -5,-2 -6,-3 -8,-2 -2,0 -4,2 -6,2 -1,1 -2,2 -3,4 -1,3 -3,8 -4,11z"/>
  <path class="fil0" d="M171 530c0,3 0,4 5,7 4,3 12,9 17,11 5,3 6,2 11,-3 4,-5 12,-14 16,-20 4,-5 5,-7 4,-9 0,-3 -2,-7 -3,-9 -1,-2 -2,-3 -4,-4 -2,-1 -7,-3 -10,-4 -3,-1 -4,0 -9,3 -5,3 -13,8 -18,12 -5,3 -6,4 -7,7 -1,3 -3,7 -3,9z"/>
  <path class="fil0" d="M148 562c-1,4 1,5 10,5 9,0 25,0 34,0 9,0 10,-1 10,-3 0,-2 -2,-6 -3,-8 -1,-2 -2,-3 -7,-7 -5,-3 -13,-9 -18,-12 -5,-3 -6,-3 -8,-3 -3,1 -6,2 -8,4 -2,1 -3,2 -5,7 -2,4 -5,12 -6,16z"/>
  <path class="fil0" d="M249 0c-4,0 -4,0 -3,1 1,1 4,3 6,4 2,1 3,1 5,0 3,-1 7,-3 9,-4 2,-1 2,-1 -2,-1 -4,0 -11,0 -15,0z"/>
  <path class="fil0" d="M206 38c1,2 2,3 4,4 2,1 5,3 8,3 2,1 4,0 8,-3 4,-3 12,-9 16,-12 4,-3 5,-5 7,-8 1,-3 3,-8 4,-11 1,-3 1,-4 -1,-5 -2,-1 -5,-4 -8,-5 -2,-1 -3,-1 -7,-2 -3,0 -9,0 -13,0 -4,0 -5,1 -8,5 -3,4 -8,11 -11,15 -3,4 -3,5 -2,8 1,3 2,7 4,10z"/>
  <path class="fil0" d="M226 60c1,3 2,4 7,7 4,3 12,9 17,12 5,3 6,3 8,3 3,-1 6,-2 8,-3 2,-1 3,-2 4,-4 1,-2 3,-6 4,-9 1,-3 0,-4 -4,-10 -4,-6 -12,-15 -17,-20 -5,-5 -6,-5 -11,-3 -5,2 -12,8 -16,12 -4,3 -5,4 -4,7 0,2 2,7 4,9z"/>
  <path class="fil0" d="M204 112c1,3 2,3 4,4 2,1 6,3 8,3 2,1 4,0 8,-3 4,-3 12,-8 16,-11 4,-3 5,-4 7,-7 2,-3 4,-8 4,-11 1,-3 0,-4 -4,-7 -4,-3 -12,-9 -17,-11 -5,-3 -6,-2 -11,3 -5,5 -12,15 -16,20 -4,6 -5,7 -4,10 1,3 2,7 4,10z"/>
  <path class="fil0" d="M226 136c2,3 3,4 8,8 5,3 14,9 19,12 5,3 6,3 8,3 2,0 5,-2 6,-3 2,-1 2,-2 3,-4 1,-3 3,-7 4,-11 1,-3 0,-5 -4,-10 -4,-6 -13,-15 -18,-20 -5,-5 -6,-5 -11,-3 -5,2 -12,7 -16,11 -4,3 -5,4 -4,7 1,3 3,8 4,11z"/>
  <path class="fil0" d="M205 188c1,2 2,2 4,4 2,1 7,3 10,4 3,1 4,1 9,-2 5,-3 13,-8 17,-11 5,-3 6,-4 7,-7 2,-3 4,-8 5,-11 1,-3 0,-4 -5,-8 -5,-3 -14,-9 -19,-11 -5,-2 -7,-2 -11,4 -5,5 -12,16 -16,22 -4,6 -5,7 -4,10 0,2 2,5 3,7z"/>
  <path class="fil0" d="M227 212c1,3 2,4 7,8 5,4 13,10 18,13 5,3 6,4 9,3 2,-1 5,-2 7,-3 2,-1 2,-2 4,-5 1,-3 3,-8 3,-11 1,-3 0,-5 -4,-10 -4,-5 -11,-15 -15,-19 -4,-5 -6,-5 -11,-3 -5,2 -13,7 -17,10 -4,3 -5,4 -5,7 0,3 2,7 3,9z"/>
  <path class="fil0" d="M206 266c1,2 2,3 4,4 2,1 5,3 8,3 2,1 4,0 9,-4 5,-4 14,-10 19,-14 5,-4 6,-5 8,-7 1,-2 3,-5 3,-7 0,-2 0,-3 -5,-7 -5,-4 -13,-10 -18,-13 -5,-3 -7,-2 -11,3 -5,5 -12,16 -15,22 -4,6 -5,8 -4,10 0,3 2,7 3,9z"/>
  <path class="fil0" d="M226 286c1,2 3,3 8,7 5,4 14,10 20,14 5,3 7,4 9,4 2,0 5,-1 6,-2 2,-1 2,-2 4,-4 1,-2 4,-7 4,-10 1,-3 0,-5 -3,-11 -4,-6 -10,-17 -15,-23 -4,-6 -6,-6 -11,-3 -5,3 -14,10 -19,14 -5,4 -6,5 -5,7 0,2 2,6 3,8z"/>
  <path class="fil0" d="M205 340c1,2 2,2 4,4 2,1 6,3 9,4 3,1 4,0 9,-3 5,-3 13,-9 18,-12 5,-3 6,-5 7,-7 2,-3 4,-7 4,-10 1,-3 0,-4 -5,-8 -5,-4 -14,-10 -19,-13 -5,-3 -7,-2 -11,4 -4,6 -11,17 -15,24 -4,7 -4,8 -4,10 0,2 2,5 3,7z"/>
  <path class="fil0" d="M226 362c1,2 2,4 6,7 4,4 12,10 17,13 5,3 6,4 9,3 3,-1 7,-2 9,-3 2,-1 3,-2 4,-4 1,-2 3,-7 4,-9 1,-3 0,-4 -4,-10 -4,-6 -10,-16 -15,-21 -4,-5 -6,-6 -11,-3 -5,2 -13,8 -17,12 -4,3 -5,4 -5,7 0,2 2,6 3,8z"/>
  <path class="fil0" d="M206 415c1,3 2,4 4,5 2,1 5,3 7,3 2,1 3,0 8,-2 4,-2 12,-7 16,-10 4,-3 5,-4 7,-7 2,-3 4,-8 5,-11 1,-3 0,-4 -4,-8 -4,-4 -12,-10 -16,-13 -5,-3 -6,-2 -11,2 -5,5 -12,15 -16,21 -4,6 -5,7 -4,10 1,3 3,8 4,11z"/>
  <path class="fil0" d="M224 441c1,3 2,4 7,8 4,3 12,9 17,12 5,3 6,3 9,3 3,-1 7,-3 9,-4 2,-1 3,-2 4,-5 1,-3 3,-8 4,-12 1,-3 0,-5 -5,-10 -4,-5 -13,-13 -17,-17 -5,-4 -6,-5 -11,-3 -5,2 -12,7 -16,10 -4,3 -5,4 -4,7 0,3 2,8 3,11z"/>
  <path class="fil0" d="M204 492c1,3 2,4 5,5 3,1 7,3 10,4 3,1 4,0 8,-2 4,-3 11,-8 15,-11 4,-3 5,-4 6,-7 1,-3 3,-8 3,-10 0,-3 0,-4 -4,-7 -4,-3 -12,-9 -17,-12 -5,-3 -6,-2 -11,2 -5,4 -12,12 -15,17 -4,5 -4,6 -4,10 1,3 3,9 4,12z"/>
  <path class="fil0" d="M226 516c1,3 2,4 7,7 5,4 13,10 17,13 5,3 6,4 9,3 3,-1 7,-3 9,-5 2,-2 3,-2 4,-5 1,-3 3,-7 3,-10 0,-3 0,-4 -5,-9 -4,-5 -12,-14 -17,-18 -5,-4 -6,-5 -11,-2 -4,2 -11,8 -15,11 -4,3 -4,4 -4,7 0,2 1,6 3,9z"/>
  <path class="fil0" d="M204 565c1,2 3,3 9,3 6,0 18,0 24,0 6,0 8,-1 10,-5 2,-4 4,-11 5,-15 1,-4 0,-6 -4,-9 -4,-4 -12,-10 -17,-13 -5,-3 -6,-2 -11,2 -5,5 -12,14 -16,20 -4,5 -5,7 -4,9 0,3 2,6 3,8z"/>
  <path class="fil0" d="M278 0c-8,0 -8,1 -4,5 4,4 14,11 19,14 5,3 6,3 10,0 3,-3 9,-10 11,-14 2,-4 1,-4 -6,-5 -8,0 -22,0 -30,0z"/>
  <path class="fil0" d="M250 23c-1,3 0,5 4,10 4,6 12,15 17,20 5,5 6,5 11,3 5,-3 12,-8 16,-12 4,-3 5,-4 4,-7 0,-3 -2,-7 -3,-9 -1,-3 -2,-4 -7,-8 -5,-4 -13,-10 -18,-14 -5,-3 -6,-4 -9,-3 -3,0 -6,2 -8,3 -2,1 -3,2 -4,5 -1,3 -3,8 -4,11z"/>
  <path class="fil0" d="M273 74c-1,3 0,4 4,7 4,4 12,10 16,13 5,3 6,3 11,-3 5,-5 13,-16 17,-22 4,-6 5,-7 5,-10 0,-2 -2,-6 -3,-8 -1,-2 -2,-3 -4,-4 -3,-1 -7,-4 -10,-4 -3,-1 -4,0 -9,2 -5,3 -12,9 -16,12 -4,3 -5,4 -7,7 -1,3 -3,6 -4,9z"/>
  <path class="fil0" d="M250 99c-1,3 0,5 4,10 4,6 13,15 17,20 5,5 7,5 11,3 4,-3 12,-8 16,-11 4,-3 5,-4 4,-7 -1,-3 -2,-7 -4,-9 -1,-3 -2,-4 -7,-8 -4,-4 -12,-10 -17,-14 -5,-3 -6,-4 -8,-3 -3,0 -6,2 -8,3 -2,1 -3,2 -4,5 -1,3 -4,8 -4,11z"/>
  <path class="fil0" d="M273 152c-1,3 0,4 4,7 4,3 13,9 17,12 5,3 7,2 11,-2 5,-5 12,-14 16,-19 4,-5 5,-7 4,-10 -1,-4 -4,-9 -5,-13 -2,-3 -2,-4 -5,-5 -2,-1 -6,-2 -8,-3 -2,0 -4,0 -8,3 -4,3 -12,8 -16,12 -4,3 -5,4 -7,7 -1,3 -3,8 -4,11z"/>
  <path class="fil0" d="M254 177c-1,3 0,5 3,10 4,5 11,15 15,19 4,5 6,5 11,2 5,-3 12,-9 17,-12 4,-4 5,-5 5,-7 0,-2 -2,-6 -3,-9 -1,-2 -2,-4 -7,-7 -5,-3 -13,-9 -18,-12 -5,-3 -6,-3 -8,-3 -2,0 -5,2 -6,3 -2,1 -2,2 -4,5 -2,3 -4,8 -5,12z"/>
  <path class="fil0" d="M274 229c0,3 0,4 4,7 4,3 11,7 15,9 4,2 6,2 11,-3 5,-4 12,-13 16,-18 4,-5 5,-6 4,-10 -1,-3 -2,-8 -4,-11 -1,-3 -2,-4 -4,-5 -2,-1 -5,-3 -8,-4 -2,-1 -4,0 -8,3 -5,3 -13,9 -17,13 -4,4 -5,5 -7,8 -1,3 -3,8 -3,11z"/>
  <path class="fil0" d="M255 249c-1,2 0,4 4,10 4,6 10,17 15,23 4,6 6,6 11,4 5,-3 13,-8 17,-12 4,-4 5,-5 4,-8 -1,-3 -4,-9 -5,-12 -2,-3 -3,-4 -7,-7 -4,-3 -12,-7 -16,-9 -4,-2 -5,-3 -8,-2 -2,1 -6,2 -7,3 -2,1 -2,2 -4,4 -1,2 -3,5 -3,8z"/>
  <path class="fil0" d="M273 304c-1,3 0,4 5,7 5,3 13,9 18,12 5,3 7,2 11,-3 4,-5 11,-16 15,-22 4,-6 4,-8 4,-10 -1,-3 -2,-7 -4,-9 -1,-2 -2,-3 -4,-4 -2,-1 -6,-3 -8,-3 -2,0 -4,0 -9,3 -5,3 -13,9 -18,12 -5,3 -6,5 -7,7 -2,3 -4,7 -4,10z"/>
  <path class="fil0" d="M254 327c-1,3 0,5 3,10 4,6 10,16 15,21 4,5 6,6 11,3 5,-3 14,-9 19,-12 5,-3 6,-5 5,-7 -1,-3 -2,-7 -4,-9 -1,-3 -3,-4 -8,-7 -5,-3 -14,-9 -19,-12 -5,-3 -6,-3 -8,-3 -2,0 -5,1 -6,2 -2,1 -2,2 -3,4 -1,3 -4,7 -4,10z"/>
  <path class="fil0" d="M273 379c-1,3 0,4 4,7 4,3 11,9 15,11 4,2 6,2 11,-3 5,-5 13,-14 18,-19 4,-5 5,-7 5,-10 0,-3 -2,-7 -3,-10 -1,-3 -2,-3 -3,-4 -2,-1 -5,-3 -7,-4 -2,-1 -4,0 -9,3 -5,3 -14,9 -19,12 -5,4 -6,5 -8,7 -1,3 -3,7 -4,9z"/>
  <path class="fil0" d="M249 405c-1,3 0,5 4,10 4,5 13,13 17,17 5,4 7,5 11,2 4,-2 12,-7 15,-10 4,-3 4,-4 4,-7 -1,-3 -2,-8 -4,-11 -1,-3 -2,-4 -6,-7 -4,-3 -11,-8 -16,-11 -4,-3 -5,-3 -8,-3 -3,1 -7,2 -9,3 -2,1 -3,2 -5,5 -2,3 -4,8 -5,11z"/>
  <path class="fil0" d="M272 455c-1,3 0,4 4,7 4,3 12,9 16,11 5,2 6,2 11,-3 5,-5 12,-15 16,-21 4,-6 5,-7 5,-9 0,-2 -1,-6 -2,-8 -1,-2 -2,-3 -4,-4 -3,-1 -7,-4 -10,-4 -3,-1 -4,-1 -9,2 -4,3 -12,7 -16,10 -4,3 -5,4 -7,7 -1,3 -3,8 -4,12z"/>
  <path class="fil0" d="M250 481c0,3 0,4 5,9 4,5 12,14 17,18 5,4 7,5 11,2 4,-3 12,-8 16,-11 4,-3 5,-4 4,-7 -1,-3 -2,-7 -4,-10 -1,-3 -2,-4 -7,-7 -4,-3 -12,-8 -17,-11 -5,-3 -6,-3 -9,-2 -3,1 -7,3 -9,4 -2,1 -3,2 -4,5 -1,3 -3,7 -3,10z"/>
  <path class="fil0" d="M274 530c0,3 0,4 4,7 4,3 11,8 16,11 4,2 6,2 11,-2 5,-4 12,-13 17,-17 4,-5 5,-6 4,-10 -1,-3 -3,-8 -4,-11 -1,-3 -2,-4 -4,-5 -2,-1 -7,-3 -9,-4 -3,-1 -4,0 -8,3 -4,3 -12,8 -16,11 -4,3 -5,4 -6,7 -1,3 -3,7 -3,10z"/>
  <path class="fil0" d="M250 562c-1,4 1,5 9,5 9,0 25,0 33,0 9,0 10,-1 10,-3 0,-2 -2,-6 -3,-9 -1,-3 -2,-3 -6,-7 -4,-3 -12,-8 -16,-11 -4,-3 -6,-3 -8,-2 -3,1 -7,3 -9,5 -2,2 -3,3 -5,7 -2,4 -4,11 -5,15z"/>
  <path class="fil0" d="M350 0c-4,0 -5,0 -3,2 2,1 5,4 7,5 2,1 3,1 6,0 3,-1 7,-3 9,-4 2,-1 3,-1 3,-2 0,0 1,-1 0,-1 0,0 -1,0 -6,0 -4,0 -13,0 -17,0z"/>
  <path class="fil0" d="M305 37c1,2 2,3 4,5 3,1 7,4 10,4 3,1 4,0 9,-3 5,-3 13,-9 17,-13 4,-4 6,-5 7,-7 1,-3 2,-7 3,-10 1,-3 0,-4 -2,-5 -2,-2 -6,-5 -9,-6 -3,-2 -4,-2 -7,-2 -3,0 -9,0 -13,0 -4,0 -5,1 -8,5 -3,4 -9,11 -11,15 -3,4 -3,5 -3,8 0,3 2,7 3,9z"/>
  <path class="fil0" d="M328 60c1,2 2,3 6,7 4,4 11,10 16,13 4,3 6,4 9,3 3,-1 8,-3 11,-4 3,-1 4,-2 5,-5 1,-3 3,-8 4,-11 1,-3 0,-5 -4,-10 -4,-5 -12,-14 -17,-18 -5,-5 -6,-5 -11,-2 -5,3 -13,9 -17,12 -4,4 -5,5 -5,7 0,2 2,5 3,8z"/>
  <path class="fil0" d="M304 113c1,2 2,3 4,4 2,1 6,2 8,3 2,0 4,0 8,-3 5,-3 13,-9 17,-12 4,-3 5,-4 7,-7 1,-3 3,-7 3,-9 0,-3 0,-4 -4,-7 -4,-4 -11,-10 -15,-13 -4,-3 -6,-2 -11,3 -5,5 -13,16 -17,22 -4,6 -5,8 -4,10 1,3 2,7 4,9z"/>
  <path class="fil0" d="M328 139c2,3 3,5 7,7 5,3 13,7 17,10 5,2 6,3 8,2 2,-1 4,-2 6,-3 2,-1 2,-2 3,-5 1,-3 4,-7 4,-10 1,-3 0,-5 -4,-10 -4,-6 -12,-15 -16,-20 -5,-5 -6,-5 -11,-3 -5,2 -12,8 -17,12 -4,4 -5,5 -4,8 1,3 3,9 5,13z"/>
  <path class="fil0" d="M306 188c1,2 2,3 4,4 2,1 5,3 8,4 2,1 4,0 9,-2 5,-3 14,-8 19,-11 5,-3 6,-4 7,-7 1,-3 3,-8 3,-11 0,-3 0,-4 -5,-7 -4,-3 -12,-7 -17,-9 -5,-2 -6,-1 -11,3 -5,5 -12,14 -16,19 -4,5 -5,7 -4,9 0,3 2,7 3,9z"/>
  <path class="fil0" d="M327 214c1,3 2,4 7,7 5,3 13,9 17,11 5,3 6,3 8,3 2,-1 6,-2 8,-3 2,-1 3,-2 4,-5 1,-3 3,-8 4,-11 1,-3 0,-5 -3,-10 -4,-5 -10,-14 -14,-19 -4,-5 -6,-5 -11,-3 -5,2 -14,8 -18,11 -5,3 -5,4 -5,7 0,3 2,8 4,11z"/>
  <path class="fil0" d="M307 265c2,3 2,4 4,5 2,1 6,3 8,3 2,0 4,0 8,-3 4,-3 11,-9 16,-12 4,-3 5,-5 7,-7 1,-3 3,-7 4,-10 1,-3 0,-4 -4,-7 -4,-3 -12,-9 -17,-11 -5,-3 -6,-2 -11,2 -5,4 -12,13 -16,18 -4,5 -5,7 -4,10 1,4 4,9 5,12z"/>
  <path class="fil0" d="M328 288c1,3 2,4 7,7 5,3 13,9 17,12 5,3 6,3 8,3 2,0 6,-2 8,-3 2,-1 3,-2 4,-4 1,-3 3,-7 3,-10 1,-3 0,-4 -5,-10 -4,-6 -12,-15 -17,-20 -5,-5 -6,-5 -11,-3 -4,2 -11,8 -15,12 -4,3 -4,4 -4,7 1,3 2,7 4,9z"/>
  <path class="fil0" d="M309 341c1,2 2,3 4,4 2,1 5,3 7,4 2,1 3,0 8,-2 4,-3 12,-7 16,-10 4,-3 5,-4 7,-8 2,-4 4,-9 5,-13 1,-4 0,-5 -4,-8 -4,-3 -12,-9 -17,-11 -5,-3 -6,-2 -11,3 -4,5 -11,16 -15,22 -4,6 -4,8 -4,10 1,3 3,7 4,9z"/>
  <path class="fil0" d="M327 365c1,3 2,4 6,8 4,4 12,10 16,13 4,3 6,4 9,3 3,-1 7,-3 10,-4 3,-1 3,-2 5,-5 1,-3 3,-9 4,-12 1,-3 0,-5 -4,-10 -4,-5 -13,-13 -18,-17 -5,-4 -6,-4 -11,-2 -5,2 -12,7 -15,10 -4,3 -4,4 -4,7 0,3 2,7 3,10z"/>
  <path class="fil0" d="M303 417c1,3 2,4 5,5 3,1 7,4 10,4 3,1 4,0 9,-3 5,-3 13,-10 17,-14 4,-4 5,-5 6,-7 1,-2 2,-6 2,-8 0,-2 0,-3 -4,-7 -4,-4 -11,-10 -16,-13 -4,-3 -6,-3 -11,2 -5,5 -13,14 -18,19 -4,5 -5,7 -5,10 1,3 2,8 4,11z"/>
  <path class="fil0" d="M326 439c1,2 2,3 6,7 4,4 12,10 17,14 5,3 6,4 9,3 3,-1 7,-2 9,-4 2,-1 3,-2 5,-5 1,-3 4,-8 4,-11 1,-3 0,-5 -4,-10 -4,-5 -12,-15 -16,-20 -5,-5 -6,-5 -11,-2 -5,3 -13,10 -17,13 -4,4 -5,5 -5,7 0,2 1,5 2,8z"/>
  <path class="fil0" d="M305 492c1,3 2,3 4,5 2,1 7,3 9,4 3,1 4,0 8,-2 4,-3 11,-8 15,-11 4,-3 5,-4 6,-7 1,-3 3,-7 4,-10 1,-3 0,-4 -4,-8 -4,-4 -12,-10 -16,-13 -5,-3 -6,-3 -11,2 -5,5 -12,15 -16,21 -4,6 -5,7 -4,10 1,3 2,8 4,10z"/>
  <path class="fil0" d="M328 518c1,3 2,4 7,8 4,3 12,9 16,12 4,3 6,3 8,3 3,-1 7,-3 9,-4 2,-1 3,-2 5,-5 1,-3 3,-8 4,-11 1,-3 0,-5 -5,-10 -5,-5 -13,-14 -18,-19 -5,-5 -7,-5 -11,-3 -4,2 -11,7 -15,11 -4,3 -4,4 -4,7 1,3 2,8 4,11z"/>
  <path class="fil0" d="M304 564c1,2 3,3 9,3 6,0 18,0 24,0 6,0 8,-1 10,-5 2,-4 4,-11 5,-15 1,-4 0,-5 -3,-9 -4,-3 -11,-9 -16,-12 -4,-3 -6,-2 -11,2 -5,4 -13,13 -17,17 -4,5 -5,6 -5,9 0,3 2,7 3,9z"/>
  <path class="fil0" d="M374 2c0,1 1,1 6,5 5,3 13,9 18,12 5,3 6,3 9,-1 3,-3 8,-10 9,-14 2,-4 1,-4 -6,-5 -7,0 -19,0 -26,0 -7,0 -8,0 -9,1 -1,0 -1,1 -1,2z"/>
  <path class="fil0" d="M354 24c0,3 0,4 5,9 4,5 12,14 17,18 5,5 6,5 11,2 4,-3 12,-8 16,-11 4,-3 5,-4 4,-7 0,-2 -2,-6 -3,-9 -1,-2 -2,-4 -7,-7 -5,-3 -13,-9 -18,-12 -5,-3 -6,-3 -9,-3 -3,1 -7,3 -9,4 -2,1 -3,2 -4,5 -1,3 -3,7 -3,10z"/>
  <path class="fil0" d="M376 74c-1,3 0,4 4,8 4,4 11,9 16,12 4,3 6,2 11,-2 5,-5 12,-14 16,-20 4,-5 5,-7 4,-10 -1,-3 -3,-8 -4,-11 -1,-3 -2,-4 -4,-5 -2,-1 -6,-3 -8,-4 -2,-1 -4,0 -8,3 -4,3 -12,8 -16,11 -4,3 -5,4 -7,7 -1,3 -3,8 -4,11z"/>
  <path class="fil0" d="M351 98c0,3 0,4 4,10 4,6 12,15 16,20 5,5 6,6 11,3 5,-2 13,-8 18,-11 5,-3 5,-4 5,-7 0,-3 -2,-7 -4,-10 -1,-3 -2,-4 -7,-8 -4,-4 -12,-9 -16,-12 -4,-3 -6,-3 -9,-3 -3,1 -8,3 -11,4 -3,1 -4,2 -5,4 -1,2 -3,6 -3,9z"/>
  <path class="fil0" d="M371 151c-1,3 0,4 5,7 5,3 14,9 19,12 5,3 7,2 11,-3 4,-5 9,-15 13,-21 3,-6 4,-7 3,-10 -1,-3 -2,-7 -3,-9 -1,-2 -2,-3 -3,-4 -2,-1 -4,-2 -6,-3 -2,0 -3,0 -8,3 -5,3 -13,8 -18,11 -5,3 -6,4 -8,7 -2,3 -4,8 -4,10z"/>
  <path class="fil0" d="M355 176c0,3 0,5 4,10 4,5 10,14 14,19 4,5 6,5 11,3 5,-2 14,-8 19,-11 5,-3 5,-4 5,-7 -1,-3 -3,-7 -4,-10 -2,-3 -3,-4 -8,-7 -5,-3 -14,-9 -20,-12 -5,-3 -6,-3 -9,-3 -2,0 -5,2 -6,3 -1,1 -2,2 -3,5 -1,3 -3,8 -3,11z"/>
  <path class="fil0" d="M373 227c-1,3 0,4 5,8 4,4 12,10 17,12 5,3 6,2 11,-3 4,-5 12,-15 15,-21 4,-6 4,-7 4,-11 -1,-3 -3,-8 -5,-11 -1,-3 -2,-4 -3,-4 -1,-1 -3,-2 -5,-2 -2,0 -3,0 -8,3 -5,3 -14,8 -19,11 -5,3 -6,4 -8,7 -1,3 -3,8 -4,11z"/>
  <path class="fil0" d="M352 251c-1,3 0,4 4,10 4,6 12,15 17,20 5,5 6,5 11,2 4,-3 12,-9 16,-13 4,-4 5,-5 4,-7 0,-2 -2,-5 -3,-8 -1,-2 -2,-3 -7,-7 -5,-3 -13,-9 -18,-13 -5,-3 -6,-4 -9,-3 -3,0 -6,2 -8,3 -2,1 -3,2 -4,4 -1,3 -3,7 -4,10z"/>
  <path class="fil0" d="M375 303c-1,3 0,4 4,7 4,3 11,9 16,11 4,3 6,2 11,-3 5,-5 13,-14 17,-19 4,-5 5,-7 5,-10 0,-3 -2,-8 -3,-11 -1,-3 -2,-4 -4,-5 -3,-1 -7,-4 -10,-5 -3,-1 -4,0 -9,3 -4,3 -12,10 -16,13 -4,4 -5,5 -7,8 -1,3 -3,7 -3,10z"/>
  <path class="fil0" d="M352 329c-1,4 0,5 4,10 4,5 13,13 18,17 5,4 7,4 11,2 4,-3 11,-8 15,-11 4,-3 4,-4 4,-7 0,-3 -2,-7 -3,-10 -1,-3 -2,-4 -6,-7 -4,-3 -12,-9 -16,-11 -4,-3 -5,-3 -8,-3 -2,0 -6,2 -8,3 -2,1 -3,2 -4,5 -2,3 -4,9 -5,13z"/>
  <path class="fil0" d="M375 379c-1,3 0,4 4,7 4,3 12,7 16,9 5,2 6,2 11,-3 5,-5 12,-14 16,-20 4,-5 5,-7 5,-9 0,-3 -2,-6 -3,-8 -1,-2 -2,-3 -4,-4 -3,-2 -8,-4 -11,-5 -3,-1 -4,-1 -9,2 -4,3 -11,8 -15,11 -4,3 -5,4 -6,8 -1,3 -3,9 -4,12z"/>
  <path class="fil0" d="M353 403c0,2 0,4 5,9 4,5 12,15 16,20 5,5 6,5 11,3 5,-2 13,-7 18,-10 4,-3 5,-4 4,-7 -1,-3 -3,-9 -5,-12 -2,-3 -3,-5 -7,-7 -4,-3 -12,-7 -17,-10 -5,-2 -6,-3 -9,-2 -3,1 -7,3 -10,4 -2,1 -3,2 -4,4 -1,2 -2,5 -2,8z"/>
  <path class="fil0" d="M374 455c-1,3 0,4 4,8 4,4 12,9 17,12 5,3 6,2 11,-3 4,-5 12,-15 15,-21 4,-6 4,-7 4,-10 -1,-3 -3,-8 -4,-11 -1,-3 -2,-3 -3,-4 -1,-1 -4,-2 -5,-2 -2,0 -3,0 -8,3 -5,3 -13,7 -18,10 -5,3 -6,4 -7,7 -2,3 -4,8 -4,11z"/>
  <path class="fil0" d="M350 480c-1,3 0,5 5,10 5,5 13,14 18,19 5,5 7,5 11,3 4,-2 11,-8 15,-11 4,-3 4,-4 4,-7 0,-3 -2,-7 -3,-10 -1,-3 -2,-4 -7,-7 -5,-3 -13,-9 -17,-12 -5,-3 -6,-3 -9,-3 -3,1 -7,2 -9,4 -2,1 -3,2 -4,5 -1,3 -3,7 -4,10z"/>
  <path class="fil0" d="M375 532c-1,3 0,4 5,8 5,4 13,10 18,14 5,3 7,3 11,-3 4,-6 11,-17 14,-24 4,-7 4,-8 4,-11 0,-2 -2,-6 -3,-8 -1,-2 -2,-3 -4,-4 -2,-1 -7,-3 -10,-4 -3,-1 -4,0 -8,2 -4,3 -12,8 -16,11 -4,3 -5,4 -7,7 -2,3 -4,8 -4,11z"/>
  <path class="fil0" d="M349 563c-1,4 1,5 10,5 9,0 26,0 35,0 9,0 11,0 11,-2 0,-1 -1,-3 -2,-5 -1,-1 -2,-2 -7,-6 -5,-4 -14,-10 -19,-14 -5,-4 -6,-4 -9,-3 -3,1 -7,2 -9,4 -2,1 -3,2 -5,6 -2,4 -5,11 -5,14z"/>
  <path class="fil0" d="M453 0c-4,0 -4,0 -3,2 2,1 5,4 8,5 2,1 3,1 5,0 2,-1 6,-3 8,-3 2,-1 2,-1 3,-2 0,0 1,-1 0,-1 0,0 -1,0 -5,0 -4,0 -12,0 -16,0z"/>
  <path class="fil0" d="M408 36c1,2 2,3 4,4 2,1 6,3 8,4 3,1 4,0 9,-2 5,-3 13,-7 17,-10 5,-3 6,-4 7,-7 1,-3 3,-8 4,-11 1,-3 1,-4 -2,-6 -2,-2 -6,-4 -9,-6 -3,-1 -4,-2 -7,-2 -4,0 -10,0 -14,0 -4,0 -5,1 -8,5 -3,4 -8,10 -10,14 -2,4 -3,5 -2,8 0,3 2,6 3,9z"/>
  <path class="fil0" d="M429 61c1,3 2,4 7,7 5,3 13,9 17,11 5,3 6,3 8,3 2,0 6,-2 8,-3 2,-1 3,-2 4,-4 1,-3 3,-7 4,-10 1,-3 0,-4 -4,-10 -4,-5 -11,-15 -16,-20 -5,-5 -6,-5 -11,-3 -5,2 -13,7 -17,10 -4,3 -5,4 -4,7 1,3 2,8 4,11z"/>
  <path class="fil0" d="M407 113c1,3 2,3 3,4 1,1 4,2 6,3 2,0 3,0 8,-2 5,-3 14,-7 19,-10 5,-3 6,-4 8,-7 2,-3 4,-8 5,-12 1,-3 0,-4 -4,-8 -4,-3 -12,-9 -17,-11 -5,-2 -6,-2 -11,3 -5,5 -12,14 -16,20 -4,5 -5,7 -4,10 1,3 2,8 4,10z"/>
  <path class="fil0" d="M424 135c1,3 2,4 8,8 5,4 14,11 20,14 5,4 7,4 9,3 2,-1 6,-3 8,-4 2,-1 3,-2 4,-4 1,-2 2,-6 3,-9 0,-3 0,-4 -4,-10 -4,-6 -11,-15 -15,-20 -4,-5 -6,-5 -11,-3 -5,2 -14,7 -18,10 -5,3 -5,4 -5,6 0,2 2,6 3,9z"/>
  <path class="fil0" d="M409 189c1,3 2,3 3,4 1,1 3,2 5,2 2,0 3,0 8,-3 5,-3 14,-9 19,-12 5,-3 6,-4 8,-7 1,-2 3,-5 3,-7 0,-2 0,-3 -5,-7 -5,-4 -14,-11 -19,-14 -5,-3 -7,-3 -11,2 -4,5 -10,15 -13,21 -3,6 -4,7 -3,11 1,3 3,8 4,10z"/>
  <path class="fil0" d="M426 212c2,3 3,4 8,7 5,3 13,8 18,11 5,3 6,3 8,3 2,0 4,-2 6,-3 2,-1 2,-2 3,-4 1,-2 3,-6 3,-8 1,-3 0,-4 -3,-10 -3,-6 -10,-17 -14,-23 -4,-6 -5,-6 -11,-4 -5,2 -14,8 -19,12 -5,4 -5,5 -5,8 1,3 3,8 5,11z"/>
  <path class="fil0" d="M406 263c1,2 2,3 4,4 3,1 7,4 10,5 3,1 4,1 8,-2 4,-2 11,-7 15,-10 4,-3 5,-4 7,-8 2,-4 4,-9 5,-13 1,-4 0,-5 -4,-8 -5,-3 -13,-8 -18,-11 -5,-2 -7,-2 -11,3 -5,5 -12,15 -15,21 -4,6 -5,7 -4,10 0,2 2,6 3,8z"/>
  <path class="fil0" d="M429 289c1,3 2,4 6,8 4,4 12,9 16,13 4,3 6,4 8,3 3,-1 7,-2 9,-3 2,-1 3,-2 4,-5 1,-3 4,-8 5,-12 1,-3 0,-5 -5,-10 -5,-5 -13,-13 -19,-18 -5,-4 -7,-5 -11,-3 -4,2 -11,7 -14,9 -4,3 -4,4 -4,7 0,3 2,8 3,11z"/>
  <path class="fil0" d="M405 339c1,3 2,3 5,5 3,2 8,4 11,5 3,1 4,1 9,-2 4,-3 11,-8 15,-11 4,-3 5,-4 6,-7 1,-3 3,-7 4,-10 1,-3 0,-4 -4,-8 -4,-4 -12,-10 -16,-12 -5,-3 -6,-2 -11,2 -5,5 -13,14 -17,19 -4,5 -5,7 -5,10 0,3 2,7 3,10z"/>
  <path class="fil0" d="M429 363c1,2 2,3 6,7 4,4 11,10 16,13 4,3 6,4 9,3 3,-1 9,-3 12,-4 3,-1 4,-2 5,-4 1,-2 3,-6 3,-9 0,-3 0,-4 -5,-9 -5,-5 -13,-14 -18,-19 -5,-5 -7,-5 -11,-3 -4,2 -11,8 -15,11 -4,3 -4,4 -4,7 0,2 2,6 3,8z"/>
  <path class="fil0" d="M409 417c2,3 2,4 4,5 1,1 4,2 5,2 2,0 3,0 8,-3 5,-3 13,-9 18,-12 5,-3 6,-5 7,-7 1,-3 3,-7 3,-9 0,-3 0,-4 -4,-7 -4,-4 -11,-10 -15,-13 -4,-3 -6,-2 -11,2 -5,5 -12,14 -16,20 -4,5 -5,7 -4,11 1,4 4,9 5,13z"/>
  <path class="fil0" d="M426 441c2,3 3,4 8,7 5,3 14,8 19,11 5,3 6,3 8,3 2,-1 5,-2 7,-3 2,-1 2,-2 4,-5 1,-3 3,-7 4,-10 1,-3 0,-5 -4,-10 -4,-6 -12,-15 -16,-20 -5,-5 -6,-5 -11,-3 -5,3 -13,9 -18,12 -4,4 -5,5 -4,8 1,3 3,8 4,11z"/>
  <path class="fil0" d="M406 494c1,3 2,3 4,5 2,1 7,3 10,4 3,1 4,0 9,-3 5,-3 13,-9 17,-13 5,-4 6,-5 7,-8 1,-3 3,-8 4,-11 0,-3 0,-4 -5,-7 -5,-3 -13,-8 -18,-11 -5,-2 -7,-2 -11,3 -5,5 -12,15 -15,21 -4,6 -5,7 -4,10 0,3 2,7 3,10z"/>
  <path class="fil0" d="M428 515c1,2 2,3 7,7 5,4 14,10 19,14 5,4 7,4 9,4 2,0 6,-2 8,-3 2,-1 3,-2 4,-5 1,-3 3,-8 3,-12 1,-3 0,-5 -4,-10 -4,-5 -12,-14 -16,-19 -5,-5 -6,-5 -11,-2 -5,3 -13,9 -17,12 -4,4 -5,5 -5,7 0,2 2,5 3,7z"/>
  <path class="fil0" d="M408 566c1,1 2,1 8,2 6,0 17,0 23,0 6,0 8,-1 10,-5 2,-4 6,-11 7,-15 1,-4 1,-6 -4,-10 -5,-4 -13,-10 -18,-13 -5,-3 -7,-2 -11,4 -4,6 -11,17 -14,24 -4,7 -4,8 -4,10 0,2 1,4 2,5z"/>
  <path class="fil0" d="M476 2c0,1 1,1 5,4 4,3 11,9 15,11 4,3 5,3 9,-1 3,-3 8,-10 11,-13 2,-3 1,-4 -5,-4 -6,0 -19,0 -26,0 -7,0 -8,0 -9,1 -1,0 -1,1 -1,2z"/>
  <path class="fil0" d="M455 25c-1,3 0,5 4,10 4,5 11,15 16,20 4,5 6,5 11,3 5,-3 13,-8 17,-11 4,-3 5,-4 4,-7 -1,-3 -3,-8 -5,-11 -2,-3 -3,-4 -7,-8 -4,-3 -12,-9 -16,-12 -4,-3 -5,-3 -8,-3 -3,1 -6,2 -8,3 -2,1 -3,2 -4,5 -1,3 -3,8 -4,11z"/>
  <path class="fil0" d="M475 76c-1,3 0,4 4,8 4,4 13,11 17,14 5,3 7,3 11,-3 4,-6 11,-17 15,-23 4,-6 4,-8 3,-11 -1,-3 -4,-8 -5,-10 -2,-3 -2,-3 -4,-4 -2,-1 -4,-2 -6,-2 -2,0 -3,0 -8,3 -5,3 -13,8 -17,12 -5,3 -6,4 -7,7 -1,3 -3,7 -4,10z"/>
  <path class="fil0" d="M453 101c-1,3 0,5 3,11 4,6 11,15 15,20 4,5 6,5 11,2 5,-3 13,-10 18,-14 5,-4 5,-5 5,-7 0,-2 -1,-4 -2,-6 -1,-2 -2,-3 -7,-7 -5,-4 -13,-11 -18,-15 -5,-4 -6,-4 -9,-4 -3,0 -6,2 -8,3 -2,1 -3,2 -4,5 -2,3 -4,8 -5,12z"/>
  <path class="fil0" d="M474 152c0,2 0,3 5,6 4,3 12,8 16,10 5,2 6,2 11,-3 5,-5 13,-14 17,-19 4,-5 5,-7 4,-10 -1,-3 -2,-8 -4,-11 -1,-3 -2,-4 -4,-5 -2,-1 -6,-3 -9,-4 -3,-1 -4,0 -9,3 -5,4 -13,11 -18,15 -5,4 -6,5 -7,8 -1,3 -2,7 -3,9z"/>
  <path class="fil0" d="M454 173c-1,2 0,4 3,10 3,6 10,17 14,23 4,6 6,6 11,4 5,-3 14,-9 19,-12 5,-4 6,-5 5,-8 -1,-3 -3,-8 -5,-12 -2,-3 -3,-4 -7,-7 -4,-3 -12,-8 -17,-10 -5,-3 -6,-3 -8,-2 -3,1 -6,3 -8,4 -2,1 -3,2 -4,4 -1,2 -3,5 -3,7z"/>
  <path class="fil0" d="M472 227c0,2 0,3 5,7 5,4 14,10 19,13 5,3 7,2 11,-3 4,-6 10,-17 14,-23 4,-6 4,-8 4,-10 0,-2 -2,-6 -3,-8 -1,-2 -1,-3 -3,-4 -2,-1 -5,-3 -7,-3 -2,-1 -4,0 -9,3 -5,3 -15,9 -20,13 -5,4 -6,5 -8,7 -1,2 -3,6 -3,8z"/>
  <path class="fil0" d="M452 253c-1,4 0,5 4,10 5,5 13,13 18,18 5,4 7,5 11,2 5,-2 12,-8 16,-11 4,-3 5,-4 4,-7 -1,-3 -2,-7 -4,-9 -1,-3 -3,-4 -8,-8 -5,-4 -14,-10 -19,-13 -5,-3 -6,-4 -8,-4 -2,0 -5,2 -6,3 -1,1 -2,2 -4,5 -2,3 -4,9 -5,13z"/>
  <path class="fil0" d="M476 304c-1,3 0,4 4,8 4,4 12,10 17,13 5,3 6,2 11,-3 4,-5 12,-16 16,-21 4,-6 5,-8 4,-11 -1,-3 -3,-8 -4,-11 -1,-3 -2,-4 -4,-5 -2,-1 -5,-2 -7,-3 -2,0 -3,0 -8,3 -4,3 -12,8 -16,11 -4,3 -5,4 -7,8 -2,3 -4,8 -5,12z"/>
  <path class="fil0" d="M453 329c-1,3 0,4 5,10 5,5 13,14 18,19 5,5 7,5 11,2 4,-3 11,-8 14,-12 4,-3 4,-4 4,-7 0,-2 -2,-6 -3,-8 -1,-2 -2,-3 -7,-7 -4,-4 -12,-10 -17,-13 -5,-3 -6,-4 -9,-3 -3,0 -7,2 -9,3 -2,1 -3,2 -4,5 -1,3 -3,7 -4,10z"/>
  <path class="fil0" d="M478 378c0,3 0,4 4,7 4,4 11,10 15,13 4,3 6,3 11,-2 5,-5 12,-14 17,-19 4,-5 5,-7 4,-10 -1,-3 -2,-8 -4,-11 -1,-3 -2,-4 -5,-5 -3,-1 -7,-3 -10,-4 -3,-1 -4,0 -8,3 -4,3 -11,9 -15,12 -4,3 -5,5 -6,7 -1,3 -3,7 -3,9z"/>
  <path class="fil0" d="M452 402c0,3 0,4 4,10 4,5 12,15 16,20 5,5 6,5 11,3 5,-3 12,-8 17,-12 4,-3 5,-4 5,-7 0,-2 -1,-6 -2,-9 -1,-2 -2,-4 -6,-7 -4,-4 -11,-10 -16,-13 -4,-3 -6,-4 -9,-3 -3,1 -9,3 -12,4 -3,1 -4,2 -5,5 -1,2 -3,7 -3,9z"/>
  <path class="fil0" d="M474 454c-1,3 0,4 5,7 4,3 13,8 17,11 5,2 7,2 11,-3 5,-5 12,-13 17,-18 4,-5 5,-6 4,-9 -1,-3 -2,-8 -4,-10 -1,-3 -2,-3 -4,-5 -2,-2 -7,-4 -10,-5 -3,-1 -4,-1 -9,2 -5,3 -13,9 -17,12 -4,3 -6,5 -7,7 -1,3 -3,8 -4,10z"/>
  <path class="fil0" d="M455 479c-1,3 0,5 4,10 4,5 12,14 16,19 5,5 6,5 11,3 5,-3 12,-8 16,-11 4,-3 5,-4 4,-8 -1,-3 -3,-8 -4,-11 -1,-3 -3,-4 -7,-7 -5,-3 -13,-8 -18,-11 -5,-3 -6,-3 -8,-3 -2,0 -5,2 -7,3 -2,1 -2,2 -3,5 -1,3 -3,8 -4,11z"/>
  <path class="fil0" d="M477 532c-1,3 0,4 4,7 4,3 11,8 15,10 4,2 6,2 11,-3 5,-4 13,-13 17,-18 4,-5 5,-6 4,-10 -1,-4 -3,-9 -4,-12 -1,-3 -2,-4 -4,-5 -2,-1 -6,-3 -8,-3 -2,-1 -4,0 -8,3 -4,3 -12,8 -16,12 -4,3 -5,5 -7,8 -1,3 -3,8 -3,12z"/>
  <path class="fil0" d="M451 562c-1,4 0,5 9,5 9,0 25,0 34,0 9,0 10,-1 10,-3 0,-2 -2,-6 -3,-8 -1,-2 -2,-3 -6,-6 -4,-3 -11,-8 -15,-10 -4,-3 -5,-3 -8,-2 -2,0 -6,2 -8,3 -2,1 -3,2 -5,6 -2,4 -6,11 -7,15z"/>
  <path class="fil0" d="M551 0c-5,0 -6,0 -4,2 2,2 5,5 8,6 2,1 3,1 7,0 3,-1 9,-4 12,-6 3,-2 2,-2 -3,-2 -5,0 -15,0 -20,0z"/>
  <path class="fil0" d="M508 38c1,3 2,4 4,4 2,1 4,2 6,2 2,0 3,0 9,-4 5,-4 14,-10 19,-14 5,-4 6,-5 7,-7 1,-2 2,-5 2,-6 0,-2 0,-2 -2,-4 -2,-2 -6,-5 -9,-7 -3,-2 -4,-2 -7,-2 -3,0 -9,0 -12,0 -3,0 -4,1 -8,5 -3,4 -9,10 -11,14 -3,4 -3,5 -2,8 1,3 3,8 5,11z"/>
  <path class="fil0" d="M529 61c2,3 3,4 8,7 5,3 14,8 19,11 5,3 6,3 8,3 2,0 4,-1 5,-2 1,-1 2,-2 3,-4 1,-3 4,-7 4,-10 1,-3 0,-5 -3,-11 -4,-6 -10,-17 -15,-22 -4,-6 -6,-6 -11,-3 -5,3 -14,10 -19,14 -5,4 -5,5 -5,8 1,3 3,7 5,10z"/>
  <path class="fil0" d="M507 112c1,1 1,2 4,3 2,1 6,3 9,4 3,1 4,0 9,-2 5,-3 14,-8 19,-11 5,-3 6,-4 8,-7 2,-3 4,-8 4,-11 1,-3 0,-4 -5,-7 -5,-3 -14,-8 -19,-11 -5,-2 -7,-2 -11,4 -5,6 -11,17 -15,23 -4,6 -5,8 -4,10 0,2 1,4 2,6z"/>
  <path class="fil0" d="M529 137c1,3 2,4 7,8 5,4 13,10 17,13 5,3 6,4 8,3 2,-1 6,-2 8,-3 2,-1 3,-2 4,-5 1,-3 3,-7 4,-11 1,-3 0,-5 -3,-10 -4,-6 -10,-15 -14,-21 -4,-5 -6,-5 -11,-3 -5,2 -14,8 -18,11 -5,3 -5,4 -5,7 0,3 2,8 4,10z"/>
  <path class="fil0" d="M508 189c2,3 2,4 4,5 2,1 5,3 7,3 2,1 4,0 8,-3 5,-3 13,-9 18,-12 5,-3 6,-4 7,-7 1,-3 3,-7 4,-10 1,-3 0,-4 -4,-7 -4,-4 -12,-10 -17,-13 -5,-3 -6,-2 -11,2 -5,5 -13,14 -17,19 -4,5 -5,7 -4,10 1,3 3,9 5,12z"/>
  <path class="fil0" d="M526 210c1,2 2,3 7,7 5,4 14,11 19,14 5,4 6,4 9,3 3,-1 7,-3 9,-4 2,-1 3,-2 4,-4 1,-2 3,-6 3,-9 0,-3 0,-4 -4,-10 -4,-6 -11,-15 -16,-20 -5,-5 -6,-5 -11,-3 -5,2 -13,8 -17,12 -4,3 -5,4 -5,6 0,2 1,6 3,8z"/>
  <path class="fil0" d="M508 266c1,2 2,3 4,4 2,1 5,2 7,3 2,0 3,0 8,-3 5,-3 13,-8 17,-11 5,-3 6,-4 7,-7 1,-3 3,-7 4,-10 1,-3 0,-4 -5,-8 -5,-4 -13,-11 -18,-14 -5,-3 -7,-3 -11,3 -4,6 -11,17 -14,23 -3,6 -4,8 -3,11 1,3 2,7 4,9z"/>
  <path class="fil0" d="M528 289c2,3 3,4 7,8 5,4 13,10 18,13 5,3 6,4 8,3 2,-1 5,-2 7,-3 2,-1 2,-2 4,-5 1,-3 4,-9 5,-13 1,-4 0,-5 -4,-10 -4,-5 -12,-14 -17,-18 -5,-5 -6,-5 -11,-3 -5,2 -13,8 -17,11 -4,3 -5,4 -4,7 1,3 3,8 4,11z"/>
  <path class="fil0" d="M507 341c1,2 2,3 4,4 3,1 7,3 10,4 3,1 4,0 9,-3 5,-3 13,-9 18,-12 5,-3 6,-4 7,-7 1,-3 3,-6 3,-9 0,-2 0,-4 -5,-7 -5,-4 -13,-10 -18,-13 -5,-3 -7,-2 -11,3 -5,5 -12,16 -16,22 -4,6 -5,7 -4,10 0,2 2,6 3,8z"/>
  <path class="fil0" d="M531 367c1,3 2,4 7,7 4,3 12,8 17,11 5,3 6,3 8,3 2,-1 6,-2 8,-4 2,-1 3,-2 4,-5 1,-3 3,-7 3,-10 0,-3 0,-5 -4,-10 -4,-6 -11,-15 -15,-20 -4,-5 -6,-5 -11,-3 -5,2 -13,8 -17,12 -4,3 -5,5 -4,8 1,3 2,8 4,11z"/>
  <path class="fil0" d="M507 415c1,2 2,3 4,4 2,1 7,4 10,5 3,1 4,1 9,-3 5,-3 13,-9 18,-13 5,-4 6,-5 7,-7 1,-2 3,-6 3,-9 0,-2 0,-3 -4,-7 -4,-3 -12,-9 -16,-11 -5,-2 -6,-2 -11,3 -5,5 -13,14 -17,19 -4,5 -5,7 -5,9 0,3 1,6 2,9z"/>
  <path class="fil0" d="M530 441c1,3 2,4 7,7 4,3 12,9 17,11 5,3 6,3 8,3 2,-1 6,-2 8,-3 2,-1 3,-2 4,-4 1,-2 3,-7 4,-10 1,-3 0,-4 -4,-10 -4,-6 -10,-16 -15,-21 -4,-5 -6,-6 -11,-3 -5,3 -13,9 -18,12 -4,4 -5,5 -5,8 1,3 2,7 4,10z"/>
  <path class="fil0" d="M508 492c1,3 2,4 4,5 2,1 6,3 8,3 2,1 4,0 8,-3 5,-3 13,-8 17,-11 4,-3 6,-4 7,-7 1,-3 3,-8 4,-11 1,-3 0,-4 -4,-7 -4,-3 -12,-9 -16,-11 -5,-3 -6,-2 -11,2 -5,4 -13,13 -17,18 -4,5 -5,7 -4,10 1,3 3,8 4,11z"/>
  <path class="fil0" d="M530 519c1,3 3,5 7,8 5,3 13,8 18,11 5,3 6,3 8,2 2,-1 5,-3 7,-4 2,-1 2,-2 3,-4 1,-2 2,-6 3,-9 0,-3 0,-4 -4,-10 -4,-6 -11,-16 -15,-21 -4,-5 -6,-6 -10,-3 -5,2 -12,7 -17,11 -4,3 -5,4 -4,8 1,3 2,9 4,12z"/>
  <path class="fil0" d="M506 565c1,2 3,2 10,3 7,0 19,0 26,0 7,0 8,-1 10,-5 2,-4 4,-11 5,-15 1,-4 0,-5 -4,-9 -4,-3 -12,-8 -17,-10 -5,-2 -6,-2 -11,2 -5,4 -13,13 -17,18 -4,5 -5,6 -5,9 0,2 2,6 3,8z"/>
  <path class="fil0" d="M585 0c-7,0 -8,1 -4,4 4,3 12,9 17,12 5,3 6,3 9,0 4,-3 9,-9 12,-12 2,-3 2,-4 -6,-4 -7,0 -21,0 -28,0z"/>
  <path class="fil0" d="M555 21c0,2 0,3 4,10 4,6 10,17 15,22 4,6 6,6 11,4 5,-2 14,-8 18,-11 5,-3 5,-4 5,-8 -1,-3 -2,-9 -4,-12 -1,-3 -2,-5 -7,-8 -4,-3 -12,-9 -16,-11 -4,-3 -6,-3 -9,-2 -3,1 -8,4 -11,6 -3,2 -3,2 -4,4 -1,2 -2,4 -2,6z"/>
  <path class="fil0" d="M574 76c-1,3 0,4 5,7 5,3 14,9 19,11 5,3 7,2 11,-3 4,-5 12,-15 16,-20 4,-6 5,-7 4,-10 0,-2 -2,-6 -3,-8 -1,-2 -2,-3 -4,-4 -2,-1 -6,-3 -9,-4 -3,-1 -4,0 -9,2 -5,3 -14,8 -19,11 -5,3 -6,4 -8,7 -2,3 -4,7 -4,10z"/>
  <path class="fil0" d="M557 99c-1,3 0,5 3,11 4,6 10,15 14,21 4,5 6,6 11,3 5,-2 14,-8 18,-11 5,-3 5,-4 5,-7 -1,-3 -3,-8 -4,-11 -2,-3 -3,-4 -8,-8 -5,-3 -14,-9 -19,-12 -5,-3 -6,-3 -8,-3 -2,0 -4,1 -5,2 -1,1 -2,2 -3,4 -1,3 -4,8 -4,11z"/>
  <path class="fil0" d="M575 153c-1,3 0,4 4,7 4,3 12,8 17,11 5,2 6,2 11,-4 4,-5 11,-16 15,-21 4,-6 4,-7 4,-10 0,-3 -2,-6 -3,-8 -1,-2 -1,-3 -3,-4 -2,-1 -4,-2 -7,-3 -2,0 -3,0 -8,3 -5,3 -14,8 -19,11 -5,3 -6,4 -8,7 -1,3 -3,8 -4,10z"/>
  <path class="fil0" d="M554 176c-1,3 0,4 4,10 4,6 11,15 16,20 5,5 6,6 11,3 5,-3 14,-9 18,-12 5,-3 5,-5 4,-7 -1,-3 -3,-7 -5,-10 -2,-3 -3,-4 -8,-7 -5,-3 -13,-8 -18,-11 -5,-3 -6,-3 -8,-3 -3,1 -6,2 -8,3 -2,1 -3,2 -4,4 -1,2 -3,7 -4,10z"/>
  <path class="fil0" d="M576 227c0,3 0,4 4,7 4,3 11,9 16,11 5,3 6,2 11,-3 5,-5 12,-14 17,-20 4,-5 5,-7 4,-10 -1,-3 -3,-8 -4,-11 -1,-3 -2,-3 -4,-4 -2,-1 -4,-2 -7,-2 -2,0 -3,0 -8,3 -5,3 -14,9 -19,12 -5,3 -6,5 -7,7 -1,3 -3,7 -3,9z"/>
  <path class="fil0" d="M554 252c-1,3 0,4 4,9 4,5 12,14 17,18 5,5 6,5 11,3 5,-2 12,-7 16,-10 4,-3 5,-4 4,-7 -1,-3 -2,-8 -4,-11 -1,-3 -2,-4 -7,-8 -4,-3 -12,-9 -16,-12 -4,-3 -6,-3 -8,-3 -3,1 -7,3 -9,4 -2,1 -3,2 -4,5 -1,3 -3,7 -4,10z"/>
  <path class="fil0" d="M575 305c-1,3 0,5 4,7 5,3 13,8 18,10 5,2 7,2 11,-4 4,-5 10,-15 14,-21 3,-6 4,-7 3,-10 -1,-3 -2,-6 -4,-9 -1,-2 -2,-3 -4,-4 -2,-1 -5,-2 -7,-3 -2,-1 -3,0 -8,2 -4,3 -12,7 -16,10 -4,3 -5,4 -7,8 -2,3 -4,9 -5,13z"/>
  <path class="fil0" d="M557 328c0,3 0,4 4,10 4,6 11,15 15,20 4,5 6,6 11,3 5,-3 14,-9 19,-12 5,-3 5,-5 5,-8 -1,-3 -3,-8 -5,-11 -2,-3 -3,-4 -8,-7 -5,-3 -14,-7 -19,-10 -5,-2 -6,-3 -8,-2 -2,1 -5,2 -7,3 -2,1 -2,2 -3,4 -1,2 -3,6 -3,9z"/>
  <path class="fil0" d="M577 380c0,3 0,4 5,7 5,3 13,9 18,12 5,3 7,2 11,-3 4,-5 11,-15 15,-21 4,-6 4,-7 4,-10 -1,-3 -2,-7 -3,-10 -1,-3 -2,-3 -3,-4 -2,-1 -5,-2 -7,-3 -2,0 -4,0 -9,3 -5,3 -14,9 -19,12 -5,3 -6,5 -8,7 -1,3 -3,7 -3,10z"/>
  <path class="fil0" d="M557 403c0,3 0,4 4,10 4,6 10,16 15,21 4,5 6,6 11,3 5,-3 13,-9 18,-13 5,-4 5,-5 5,-7 0,-2 -2,-6 -3,-8 -1,-2 -2,-3 -7,-7 -5,-3 -13,-9 -18,-12 -5,-3 -6,-3 -9,-3 -3,1 -6,2 -8,4 -2,1 -3,2 -4,4 -1,2 -3,6 -3,9z"/>
  <path class="fil0" d="M576 455c0,3 0,4 5,7 4,3 13,9 18,12 5,3 7,2 11,-2 5,-5 12,-14 16,-19 4,-5 5,-7 4,-11 -1,-4 -4,-9 -5,-12 -2,-3 -2,-4 -4,-5 -2,-1 -4,-3 -7,-3 -2,-1 -3,0 -8,3 -5,3 -14,10 -18,13 -5,4 -6,5 -7,8 -1,3 -3,7 -4,9z"/>
  <path class="fil0" d="M554 480c-1,3 0,5 4,10 4,6 11,16 15,21 4,5 6,6 11,3 5,-3 14,-9 19,-13 5,-4 6,-5 5,-8 0,-3 -2,-7 -3,-9 -1,-3 -2,-4 -7,-7 -5,-3 -13,-9 -18,-12 -5,-3 -6,-3 -9,-3 -3,0 -6,2 -8,3 -2,1 -3,2 -4,5 -1,3 -3,7 -4,11z"/>
  <path class="fil0" d="M575 531c0,2 0,3 5,7 5,3 13,9 18,11 5,2 7,2 11,-3 4,-5 10,-15 14,-20 3,-6 4,-7 3,-10 -1,-3 -2,-7 -4,-10 -1,-2 -2,-3 -3,-4 -2,-1 -4,-3 -7,-3 -2,-1 -3,0 -9,3 -5,3 -14,10 -19,13 -5,4 -6,5 -7,7 -1,3 -3,6 -3,9z"/>
  <path class="fil0" d="M554 562c-1,4 1,5 10,5 9,0 25,0 34,0 9,0 10,-1 10,-3 0,-2 -2,-5 -3,-8 -1,-2 -2,-3 -7,-6 -5,-3 -14,-8 -19,-11 -5,-3 -6,-3 -9,-3 -2,1 -5,2 -7,4 -2,1 -2,2 -4,6 -2,4 -4,11 -5,15z"/>
  <path class="fil0" d="M653 0c-4,0 -5,0 -3,2 2,2 5,4 8,6 2,1 3,2 5,1 2,-1 6,-2 8,-3 2,-1 2,-1 3,-2 1,-1 1,-2 1,-3 0,-1 -1,-1 -5,-1 -4,0 -12,0 -16,0z"/>
  <path class="fil0" d="M610 37c1,3 2,4 4,5 2,1 6,3 9,4 3,1 4,0 8,-2 4,-3 12,-8 16,-11 4,-3 5,-4 7,-7 1,-3 3,-8 4,-11 1,-3 1,-4 -2,-6 -2,-2 -6,-5 -9,-7 -3,-2 -4,-2 -7,-2 -3,0 -8,0 -11,0 -3,0 -4,1 -8,4 -4,3 -10,9 -13,13 -3,4 -4,5 -3,8 1,3 3,9 4,12z"/>
  <path class="fil0" d="M631 61c1,2 2,3 7,7 4,4 12,10 17,14 5,4 6,4 9,4 3,-1 7,-2 9,-3 2,-1 3,-2 5,-5 2,-3 4,-8 5,-12 1,-3 0,-5 -4,-10 -5,-5 -13,-13 -18,-18 -5,-4 -7,-5 -11,-2 -5,2 -12,8 -15,11 -4,3 -5,4 -4,6 0,2 1,6 3,8z"/>
  <path class="fil0" d="M611 114c1,3 2,4 4,5 2,1 4,2 7,3 2,0 3,0 8,-3 5,-3 13,-8 17,-11 5,-3 6,-4 7,-7 1,-3 3,-7 4,-10 1,-3 0,-4 -4,-8 -4,-4 -12,-11 -17,-14 -5,-3 -6,-3 -11,2 -5,5 -12,15 -16,20 -4,6 -4,7 -4,11 1,3 3,8 5,11z"/>
  <path class="fil0" d="M628 135c1,2 2,4 7,8 5,4 13,11 18,15 5,4 6,4 10,3 3,-1 8,-4 11,-6 3,-2 4,-2 4,-4 1,-2 2,-5 2,-7 0,-2 -1,-4 -5,-9 -4,-6 -12,-16 -16,-21 -5,-5 -6,-6 -11,-4 -5,2 -13,8 -17,11 -4,3 -5,4 -5,6 0,2 2,6 3,8z"/>
  <path class="fil0" d="M610 189c2,3 2,3 4,4 2,1 4,2 7,2 2,0 3,0 8,-4 5,-3 14,-10 19,-14 5,-4 6,-5 7,-7 1,-2 2,-4 2,-6 0,-2 -1,-3 -5,-7 -4,-4 -12,-11 -17,-14 -5,-3 -6,-3 -11,2 -4,5 -11,15 -15,21 -4,6 -4,7 -3,11 1,3 3,8 5,10z"/>
  <path class="fil0" d="M629 212c2,3 3,4 7,7 4,3 12,9 17,12 5,3 6,3 9,3 3,-1 7,-3 9,-4 2,-1 3,-2 4,-4 1,-2 3,-6 4,-9 1,-3 0,-4 -4,-10 -4,-6 -12,-17 -16,-23 -5,-6 -6,-6 -11,-3 -5,3 -14,9 -18,13 -5,4 -5,5 -5,8 1,3 3,8 4,11z"/>
  <path class="fil0" d="M608 265c1,3 2,4 4,5 2,1 5,2 7,3 2,0 4,0 9,-3 5,-3 14,-10 19,-13 5,-4 6,-5 7,-7 1,-3 3,-6 3,-9 0,-2 0,-4 -4,-7 -4,-3 -12,-9 -16,-12 -5,-3 -6,-2 -11,3 -5,5 -12,14 -17,20 -4,6 -5,7 -4,10 1,3 3,8 4,11z"/>
  <path class="fil0" d="M627 287c1,2 3,4 8,7 5,4 14,10 19,13 5,3 7,4 9,3 2,-1 5,-3 7,-4 2,-1 2,-2 3,-5 1,-3 3,-7 3,-10 1,-3 0,-5 -4,-10 -4,-6 -10,-16 -15,-21 -4,-5 -6,-5 -11,-3 -5,3 -14,9 -19,13 -5,4 -5,5 -5,7 0,2 2,6 3,9z"/>
  <path class="fil0" d="M612 341c2,3 2,4 4,5 2,1 5,2 7,3 2,0 3,0 8,-3 5,-3 12,-9 17,-13 4,-4 5,-5 7,-7 1,-3 3,-6 3,-9 0,-2 0,-4 -5,-7 -5,-4 -14,-10 -19,-13 -5,-3 -7,-2 -11,3 -4,5 -10,15 -14,21 -3,6 -4,7 -3,11 1,3 4,8 5,11z"/>
  <path class="fil0" d="M631 364c1,3 2,4 7,7 5,3 13,9 18,12 5,3 6,3 8,3 2,0 5,-2 7,-3 2,-1 2,-2 4,-5 2,-3 4,-8 5,-12 1,-3 0,-5 -4,-10 -4,-5 -12,-15 -17,-20 -5,-5 -6,-5 -11,-2 -5,3 -12,9 -16,12 -4,4 -5,5 -4,7 0,3 2,7 3,10z"/>
  <path class="fil0" d="M611 416c1,2 1,3 3,4 2,1 4,3 7,3 2,1 3,0 9,-3 5,-3 14,-8 19,-11 5,-3 6,-4 8,-7 1,-3 3,-8 4,-11 1,-3 0,-4 -5,-7 -4,-3 -13,-9 -17,-11 -5,-3 -6,-2 -11,3 -4,5 -11,15 -15,21 -4,6 -4,7 -4,10 0,3 2,6 3,8z"/>
  <path class="fil0" d="M631 441c2,3 3,4 8,7 5,3 13,7 18,9 5,2 6,3 8,2 1,0 3,-1 4,-2 1,-1 2,-2 3,-4 1,-3 4,-8 4,-11 1,-3 0,-5 -3,-10 -3,-5 -9,-14 -13,-19 -4,-5 -5,-5 -11,-3 -5,2 -14,7 -19,11 -5,3 -5,4 -5,8 1,3 3,9 5,12z"/>
  <path class="fil0" d="M610 492c1,2 2,3 3,4 2,1 4,3 7,3 2,1 3,0 9,-2 5,-3 14,-7 19,-10 5,-3 6,-4 8,-8 2,-4 4,-9 5,-13 1,-3 0,-5 -4,-7 -5,-3 -13,-7 -18,-9 -5,-2 -7,-1 -11,3 -5,5 -12,14 -16,19 -4,5 -5,7 -4,10 0,3 2,7 3,9z"/>
  <path class="fil0" d="M628 515c1,3 3,4 8,7 5,4 15,10 20,13 5,3 7,4 9,3 2,0 5,-2 6,-3 2,-1 2,-2 3,-4 1,-3 3,-7 3,-10 1,-3 0,-4 -4,-10 -4,-5 -10,-15 -14,-19 -4,-5 -6,-5 -11,-3 -5,2 -14,7 -19,10 -5,3 -6,4 -5,7 0,3 2,7 4,9z"/>
  <path class="fil0" d="M610 565c1,2 3,2 9,3 6,0 17,0 23,0 6,0 8,-1 10,-5 2,-4 6,-11 7,-16 1,-4 1,-6 -4,-9 -5,-4 -14,-10 -20,-13 -5,-3 -7,-2 -11,3 -4,5 -10,15 -14,20 -3,6 -4,7 -3,9 0,2 2,6 3,8z"/>
  <path class="fil0" d="M676 4c0,1 1,2 5,4 4,3 12,7 16,9 4,2 6,2 9,-1 3,-3 8,-9 10,-12 2,-3 1,-4 -5,-4 -6,0 -19,0 -25,0 -7,0 -8,0 -9,1 -1,1 -1,2 -1,3z"/>
  <path class="fil0" d="M655 26c-1,3 0,5 5,10 5,5 13,13 18,18 5,4 7,5 11,3 4,-2 11,-7 15,-10 4,-3 4,-4 4,-8 -1,-3 -3,-9 -4,-12 -2,-3 -3,-5 -7,-7 -4,-3 -12,-7 -16,-9 -4,-2 -6,-3 -8,-2 -3,0 -6,2 -8,3 -2,1 -3,2 -4,5 -1,3 -3,8 -4,11z"/>
  <path class="fil0" d="M678 78c-1,3 0,4 4,8 4,4 13,10 18,13 5,3 7,2 10,-4 4,-6 10,-18 13,-24 3,-7 4,-8 3,-11 -1,-3 -3,-6 -4,-8 -1,-2 -2,-3 -4,-4 -2,-1 -5,-2 -7,-3 -2,-1 -3,0 -8,3 -4,3 -11,8 -15,11 -4,3 -5,4 -7,7 -2,3 -4,9 -5,12z"/>
  <path class="fil0" d="M655 101c-1,3 0,4 4,10 4,6 12,16 16,21 5,5 6,6 11,2 5,-4 13,-11 17,-16 4,-4 5,-5 5,-7 0,-2 -1,-4 -2,-5 -1,-2 -2,-3 -7,-6 -5,-4 -13,-10 -18,-13 -5,-3 -6,-4 -9,-3 -3,0 -7,2 -9,3 -2,1 -3,2 -4,4 -1,2 -3,7 -4,10z"/>
  <path class="fil0" d="M680 151c0,2 1,3 4,6 4,3 11,8 15,11 4,2 6,2 11,-2 5,-4 13,-11 17,-16 4,-4 5,-6 4,-10 -1,-4 -3,-11 -5,-15 -2,-4 -2,-5 -4,-6 -2,-1 -5,-3 -8,-3 -2,0 -4,0 -8,4 -5,4 -13,12 -18,16 -5,4 -6,6 -6,8 -1,2 -2,5 -2,7z"/>
  <path class="fil0" d="M656 173c0,2 1,4 5,10 4,6 12,17 16,23 5,6 6,6 11,4 5,-2 13,-7 17,-11 4,-3 5,-4 4,-8 -1,-4 -3,-10 -4,-13 -2,-4 -3,-5 -7,-8 -4,-3 -11,-8 -15,-11 -4,-3 -5,-3 -9,-2 -3,1 -8,4 -11,6 -3,2 -4,2 -5,4 -1,2 -2,4 -2,6z"/>
  <path class="fil0" d="M677 226c-1,3 0,4 5,8 5,4 13,11 18,14 5,3 7,3 11,-3 4,-6 11,-17 14,-24 4,-6 4,-8 4,-10 0,-2 -2,-5 -2,-6 -1,-2 -1,-2 -4,-3 -2,-1 -6,-3 -9,-3 -3,-1 -4,0 -9,2 -5,3 -13,8 -18,11 -5,3 -6,4 -7,7 -1,2 -3,6 -4,9z"/>
  <path class="fil0" d="M656 250c0,3 0,4 4,10 4,6 10,16 15,21 4,5 6,6 11,3 5,-3 14,-9 19,-12 5,-3 6,-4 5,-7 0,-2 -2,-5 -3,-8 -1,-2 -2,-3 -7,-7 -5,-4 -14,-11 -19,-15 -5,-4 -6,-4 -9,-3 -3,1 -7,3 -9,4 -2,1 -3,2 -4,4 -1,2 -2,6 -3,9z"/>
  <path class="fil0" d="M675 302c0,3 0,4 6,7 5,3 15,9 20,12 6,3 7,2 11,-3 4,-5 10,-15 13,-20 3,-6 4,-7 3,-10 -1,-3 -3,-8 -4,-11 -1,-3 -2,-3 -3,-4 -2,-1 -4,-2 -6,-3 -2,0 -3,0 -9,3 -5,3 -15,9 -20,12 -5,3 -6,5 -8,7 -1,3 -3,7 -3,10z"/>
  <path class="fil0" d="M657 326c0,3 0,4 4,10 4,5 12,15 17,20 5,5 7,5 12,3 5,-2 14,-7 18,-9 5,-3 5,-4 5,-7 -1,-3 -3,-8 -4,-11 -2,-3 -3,-4 -8,-8 -5,-3 -15,-9 -21,-12 -6,-3 -7,-3 -9,-3 -2,1 -5,3 -7,4 -2,1 -2,2 -3,4 -1,2 -3,6 -3,9z"/>
  <path class="fil0" d="M677 379c-1,3 0,4 4,8 5,4 13,10 18,13 5,3 7,2 11,-3 4,-6 10,-17 14,-23 4,-6 4,-8 4,-10 0,-2 -2,-6 -3,-8 -1,-2 -1,-3 -3,-4 -1,-1 -4,-2 -6,-3 -2,-1 -3,0 -8,2 -5,2 -14,7 -19,10 -5,3 -6,4 -8,7 -2,3 -4,8 -5,12z"/>
  <path class="fil0" d="M658 403c-1,3 0,5 3,10 3,5 9,14 13,19 4,5 5,5 11,2 5,-3 14,-8 19,-11 5,-3 6,-4 5,-6 0,-2 -1,-5 -3,-8 -1,-2 -2,-3 -7,-7 -5,-4 -14,-10 -19,-13 -5,-3 -6,-4 -9,-3 -2,0 -5,2 -7,3 -2,1 -2,2 -3,4 -1,3 -3,8 -4,11z"/>
  <path class="fil0" d="M673 454c-1,3 0,4 5,7 5,3 14,8 19,11 5,2 7,2 11,-3 4,-5 11,-15 15,-20 4,-6 4,-7 4,-10 0,-3 -2,-7 -3,-9 -1,-2 -2,-3 -3,-4 -2,-1 -5,-3 -8,-4 -2,-1 -4,0 -9,2 -5,3 -14,8 -19,11 -5,3 -6,4 -8,8 -2,3 -4,8 -4,11z"/>
  <path class="fil0" d="M657 480c-1,4 0,5 3,11 3,5 10,15 14,19 4,5 6,5 11,2 5,-3 14,-9 19,-12 5,-4 5,-5 5,-8 -1,-3 -3,-8 -4,-11 -2,-3 -3,-4 -8,-7 -5,-3 -14,-8 -19,-11 -5,-3 -6,-3 -8,-3 -2,0 -3,1 -4,2 -1,1 -2,2 -3,5 -1,3 -4,9 -5,13z"/>
  <path class="fil0" d="M675 532c0,3 0,4 5,7 5,3 13,9 19,11 5,2 7,2 11,-3 4,-5 12,-14 16,-20 4,-6 5,-7 4,-10 -1,-3 -3,-8 -4,-11 -1,-3 -2,-3 -4,-5 -2,-1 -6,-3 -8,-3 -2,-1 -4,0 -9,3 -5,3 -14,9 -19,13 -5,4 -6,5 -7,8 -1,3 -3,7 -3,10z"/>
  <path class="fil0" d="M654 562c-1,4 0,5 9,5 9,0 26,0 35,0 9,0 11,-1 11,-2 0,-2 -1,-5 -3,-7 -1,-2 -2,-3 -7,-6 -5,-3 -14,-8 -19,-11 -5,-3 -6,-3 -8,-3 -2,0 -5,2 -6,3 -2,1 -2,2 -4,6 -2,4 -6,11 -7,15z"/>
  <path class="fil0" d="M751 0c-1,0 -1,0 0,1 1,1 4,3 5,4 1,1 2,1 2,0 0,-1 0,-3 0,-4 0,-1 0,-1 -2,-1 -1,0 -4,0 -5,0z"/>
  <path class="fil0" d="M709 38c1,3 2,4 4,5 2,1 5,3 7,3 2,0 4,0 10,-4 6,-4 16,-11 21,-15 6,-4 7,-5 7,-8 0,-2 0,-6 0,-8 0,-2 -1,-3 -2,-4 -2,-1 -5,-4 -7,-5 -2,-1 -3,-1 -7,-2 -4,0 -11,0 -14,0 -4,0 -5,1 -9,4 -3,3 -8,9 -11,13 -3,4 -3,5 -2,8 1,3 3,9 4,12z"/>
  <path class="fil0" d="M729 59c1,2 2,3 7,6 4,3 12,8 17,10 4,2 5,1 6,-8 0,-9 0,-25 0,-33 0,-8 -1,-9 -7,-6 -5,3 -15,10 -20,15 -5,4 -6,5 -6,8 1,2 2,6 4,8z"/>
  <path class="fil0" d="M711 112c1,1 1,2 3,3 2,1 5,3 8,3 2,1 4,0 9,-2 5,-3 15,-8 20,-11 5,-3 6,-4 7,-7 0,-3 0,-9 0,-12 0,-3 -1,-4 -6,-7 -4,-3 -12,-8 -17,-10 -5,-2 -6,-1 -10,5 -4,6 -10,18 -13,24 -3,7 -4,8 -4,10 0,2 1,4 2,5z"/>
  <path class="fil0" d="M733 139c2,4 3,5 6,8 4,3 11,7 14,9 4,2 4,1 5,-8 0,-9 0,-25 0,-34 0,-9 -1,-10 -6,-8 -5,2 -14,7 -19,10 -5,3 -6,4 -5,8 1,4 3,11 5,15z"/>
  <path class="fil0" d="M711 190c1,4 2,4 4,6 2,1 6,3 9,3 3,1 4,0 9,-4 5,-4 14,-11 19,-15 5,-4 6,-5 6,-8 0,-3 0,-6 0,-9 0,-2 -1,-3 -5,-6 -4,-3 -11,-7 -15,-9 -4,-2 -6,-2 -11,2 -5,4 -13,11 -17,16 -4,4 -5,6 -4,10 1,4 3,10 4,13z"/>
  <path class="fil0" d="M732 210c1,2 2,3 6,6 4,4 11,10 16,13 4,3 5,2 5,-7 0,-9 0,-25 0,-33 0,-9 -1,-9 -6,-6 -5,3 -13,10 -18,14 -5,4 -5,5 -5,7 0,2 1,5 2,6z"/>
  <path class="fil0" d="M712 264c1,2 2,2 3,3 1,1 4,2 6,3 2,0 3,0 9,-3 6,-3 16,-9 21,-13 6,-4 7,-5 7,-7 0,-2 0,-6 0,-8 0,-2 -1,-3 -5,-7 -4,-4 -11,-10 -16,-13 -4,-3 -6,-2 -10,4 -4,6 -11,17 -14,24 -4,7 -4,8 -4,11 0,2 2,6 3,8z"/>
  <path class="fil0" d="M730 287c1,3 2,4 7,7 4,3 12,7 16,9 4,2 5,1 6,-8 0,-8 0,-24 0,-32 0,-8 -1,-9 -7,-7 -5,2 -15,9 -20,12 -5,4 -6,5 -5,8 1,3 3,8 4,11z"/>
  <path class="fil0" d="M714 342c1,3 2,4 3,5 1,1 4,3 6,3 2,0 3,0 9,-3 5,-3 15,-9 20,-13 5,-4 6,-5 7,-8 0,-4 0,-9 0,-13 0,-3 -1,-5 -6,-7 -4,-3 -12,-7 -17,-9 -5,-2 -6,-1 -10,4 -4,5 -10,15 -13,20 -3,6 -4,7 -3,11 1,3 3,9 4,11z"/>
  <path class="fil0" d="M730 362c1,2 2,3 6,7 4,4 12,10 16,12 4,3 5,2 5,-7 0,-8 0,-24 0,-32 0,-8 -1,-9 -6,-7 -5,2 -14,9 -19,12 -5,4 -6,5 -5,7 0,2 2,5 3,8z"/>
  <path class="fil0" d="M711 416c1,2 1,3 3,4 2,1 5,3 8,4 2,1 4,0 9,-3 6,-3 15,-9 21,-13 5,-4 6,-5 7,-8 0,-3 0,-7 0,-10 0,-3 -1,-4 -6,-8 -4,-4 -12,-10 -17,-12 -5,-3 -6,-2 -10,4 -4,6 -11,17 -14,23 -3,6 -4,8 -4,10 0,2 2,6 3,8z"/>
  <path class="fil0" d="M729 438c1,3 2,3 7,7 5,4 13,10 17,12 4,3 5,2 6,-7 0,-9 0,-25 0,-33 0,-9 -1,-9 -7,-7 -5,2 -15,8 -20,12 -5,4 -6,5 -6,7 0,2 2,6 3,9z"/>
  <path class="fil0" d="M711 492c1,3 2,4 4,5 2,1 6,3 8,3 2,1 4,0 9,-4 5,-4 15,-10 20,-14 5,-4 6,-5 7,-7 0,-2 0,-6 0,-8 0,-2 -1,-3 -6,-7 -4,-4 -13,-10 -17,-12 -5,-3 -6,-2 -11,3 -4,5 -11,15 -15,20 -4,6 -4,7 -3,10 1,3 3,8 4,11z"/>
  <path class="fil0" d="M732 516c1,3 2,4 6,7 4,3 11,8 15,9 4,2 5,1 5,-8 0,-9 0,-25 0,-34 0,-9 -1,-9 -6,-7 -5,3 -14,10 -19,14 -5,4 -6,5 -5,8 1,3 3,8 4,10z"/>
  <path class="fil0" d="M710 565c1,2 3,2 10,3 7,0 21,0 28,0 7,0 9,-1 9,-6 1,-5 0,-13 0,-18 0,-5 -1,-6 -5,-9 -4,-3 -11,-8 -15,-10 -4,-2 -6,-1 -10,3 -5,5 -12,14 -16,20 -4,5 -5,7 -4,9 0,2 1,6 3,8z"/>
 </g>
</svg>
